<svg width="242" height="40" viewBox="0 0 242 40" fill="none" xmlns="http://www.w3.org/2000/svg">
<g clip-path="url(#clip0_1_126)">
<path d="M15.1215 5.6C29.8215 3.7 55.0215 10.7 70.4215 12.5C70.4215 12.5 77.1215 12.5 67.2215 10C67.2215 10 57.1215 6.5 79.0215 11.2C80.6215 11.5 82.1215 11.6 83.7215 11.5C84.9215 11.4 86.4215 11.2 87.8215 11.3C90.4215 11.5 87.4215 10 87.7215 9.5C88.0215 9.1 99.5215 8.4 112.321 8.5C112.521 8.5 112.521 8.2 112.321 8.2C111.121 8 110.021 7.8 109.321 7.5C109.021 7.3 109.021 6.8 109.421 6.8C111.521 6.4 118.421 5.1 124.321 5.6C136.321 5.2 137.921 28.6 127.021 32C98.9215 42 60.5215 38.8 29.9215 37.7C26.5215 37.6 23.1215 36.9 19.9215 35.9C15.1215 34.4 5.52147 32.6 7.22147 31.4C9.22147 31.2 20.3215 32.3 21.1215 30.3C18.8215 27.5 12.5215 29.4 9.62148 26.7C8.02148 24.9 3.22147 26.2 3.02147 24.7C3.52147 23.6 3.12148 23.4 10.3215 23.5C10.3215 23.5 14.9215 23.4 20.4215 22.7C28.9215 21.9 13.3215 18.9 9.72147 17.8C9.12147 17.6 8.62148 17.5 8.02147 17.5C6.62147 17.4 4.62147 17.4 2.72147 17.3C-0.978525 17 -0.678525 11.5 3.02147 11.6C8.32148 11.8 14.7215 14 19.0215 13.8C19.8215 13.7 20.0215 12.6 19.2215 12.3C17.8215 11.9 16.2215 11.3 14.6215 10.7C12.0215 9.7 12.4215 6 15.1215 5.6Z" fill="#2E4087"/>
<path d="M86.0214 31.2C85.9214 31.4 86.0214 31.6 86.0214 31.7C86.0214 32.9 85.8214 34 85.2214 35.1C84.6214 36.1 83.8214 36.8 82.6214 36.7C81.3214 36.6 80.6214 35.8 80.2214 34.6C80.0214 34.1 80.0214 34.1 79.6214 34.4C77.7214 35.6 75.6214 36.1 73.4214 36.1C71.5214 36.1 69.6214 35.7 67.9214 35C67.1214 34.6 66.3214 34.1 65.5214 33.6C65.2214 33.4 65.1214 33.4 65.1214 33.8C64.9214 35.1 64.0214 36.1 63.2214 36.9C62.7214 37.4 61.9214 37.4 61.2214 37.2C60.4214 37 59.8214 36.5 59.3214 35.8C58.3214 34.4 57.9214 32.9 57.7214 31.3C57.3214 28.6 57.4214 25.9 57.7214 23.2C57.7214 23.1 57.7214 23 57.7214 22.9C57.7214 22.7 57.6214 22.6 57.4214 22.7C55.8214 23.2 54.1214 23.2 52.5214 23C52.2214 23 52.2214 23.1 52.2214 23.3C52.2214 23.7 52.3214 24.1 52.4214 24.4C53.2214 27.6 53.3214 30.7 52.6214 33.9C52.5214 34.4 52.3214 34.9 52.1214 35.3C51.2214 37.2 49.2214 37.6 47.7214 36C46.8214 35.1 46.2214 33.9 45.8214 32.7C45.2214 30.8 45.0214 28.9 44.9214 26.9C44.8214 25.2 45.1214 23.6 45.2214 22C45.2214 21.2 45.2214 21.3 44.5214 21.1C43.2214 20.8 42.0214 20.3 41.0214 19.3C40.2214 18.4 39.9214 17.3 40.4214 16.1C41.1214 14.4 42.4214 13.3 44.1214 12.8C45.9214 12.2 47.8214 12.4 49.6214 12.8C50.2214 12.9 50.8214 13.2 51.3214 13.3C51.9214 13.5 52.6214 13.5 53.3214 13.7C55.2214 14.1 56.9214 14.7 58.4214 15.9C58.6214 16.1 58.7214 16 58.8214 15.8C58.9214 15.3 59.1214 14.8 59.4214 14.4C60.1214 13.2 61.2214 13.1 62.3214 13.9C62.8214 14.3 63.2214 14.9 63.6214 15.5C64.0214 14.7 64.4214 14.1 65.0214 13.7C66.0214 12.9 67.2214 12.6 68.5214 12.5C71.5214 12.4 74.2214 13.1 76.7214 14.7C77.0214 14.9 77.2214 15.1 77.5214 15.3C77.6214 15.4 77.7214 15.4 77.7214 15.2C77.7214 15.1 77.7214 15 77.7214 14.9C77.8214 13.9 78.7214 13.2 79.7214 13.4C81.3214 13.6 82.4214 14.5 83.2214 15.8C83.7214 16.5 84.0215 17.2 84.3214 18C84.5215 17.9 84.5214 17.8 84.6214 17.6C85.8214 15.7 87.2214 14.1 89.2214 13C89.7214 12.7 90.2214 12.6 90.7214 12.6C91.7214 12.6 92.5214 13.4 92.5214 14.4C92.5214 15 92.4214 15.6 92.2214 16.1C91.4214 18.2 90.2214 20.1 88.6214 21.7C88.5214 21.8 88.3214 22 88.1214 22.1C87.7214 22.4 87.7214 22.4 88.1214 22.7C89.2214 23.3 90.1214 24.2 90.9214 25.2C92.1214 26.6 93.1214 28 93.7214 29.8C93.9214 30.5 94.1214 31.3 93.9214 32C93.6214 33.1 92.7214 33.8 91.5214 33.9C90.2214 33.9 89.1214 33.4 88.0214 32.7C87.3214 32.3 86.7214 31.8 86.2214 31.2C86.2214 31.3 86.2214 31.2 86.0214 31.2ZM50.4214 24.1C50.5214 22.8 50.5214 21.9 50.6214 20.9C50.6214 20.7 50.6214 20.5 50.9214 20.5C51.2214 20.5 51.5214 20.4 51.8214 20.5C53.0214 20.7 54.2214 20.7 55.4214 20.6C56.2214 20.6 57.0214 20.4 57.7214 20C58.3214 19.6 58.5214 19.1 58.1214 18.5C57.7214 17.9 57.2214 17.4 56.6214 17C54.7214 15.7 52.4214 15.1 50.2214 14.8C49.0214 14.6 48.4214 14.5 47.3214 14.4C47.2214 14.4 46.7214 14.4 46.6214 14.4C45.3214 14.6 44.0214 15 43.2214 16.2C42.4214 17.3 42.5214 17.9 43.7214 18.5C44.5214 18.9 45.3214 19.4 46.1214 19.6C46.4214 19.7 46.5214 19.8 46.5214 20.1C46.8214 22.1 47.0214 24.2 47.3214 26.2C47.5214 27.8 47.7214 29.4 48.2214 30.9C48.5214 31.9 48.8214 32.8 49.4214 33.7C49.5214 33.8 49.5214 34 49.7214 33.9C49.8214 33.9 49.8214 33.7 49.9214 33.6C50.1214 32.8 50.2214 32 50.3214 31.2C50.4214 28.7 50.4214 26.3 50.4214 24.1ZM65.4214 28.7C65.4214 29.5 65.4214 29.3 65.5214 30.1C65.7214 30.6 66.0214 30.7 66.7214 31.1C68.0214 31.7 69.5214 32.9 71.5214 33.2C72.9214 33.4 75.1214 33.2 76.4214 32.7C78.9214 31.4 79.3214 30.7 80.8214 28.6C81.0215 28.1 81.2214 27.6 81.1214 27.1C81.1214 26.8 81.0214 26.5 80.6214 26.4C80.1214 26.3 79.5215 26.7 79.3214 27.2C79.0215 28.1 78.5214 29 77.6214 29.5C75.5214 31 73.2214 31.1 70.9214 30C66.7214 28 66.2214 22.3 70.0214 19.6C71.9214 18.3 74.5214 18.2 76.0214 19.7C76.2214 19.9 76.3214 19.8 76.4214 19.7C77.0214 19.3 77.1214 18.6 76.6214 18C76.3214 17.6 75.9214 17.3 75.5214 17C73.4214 15.7 71.2214 15.2 68.7214 15.3C67.1214 15.4 65.9214 16.2 64.9214 17.4C64.7214 17.6 64.7214 17.9 64.7214 18.2C64.8214 18.7 64.9214 19.2 65.0214 19.7C65.5214 22.7 65.5214 25.7 65.4214 28.7ZM89.9214 15.6C89.8214 15.5 89.7214 15.3 89.5214 15.5C87.8214 16.6 86.2215 17.9 84.8214 19.3C84.1214 20.1 84.1214 21.3 83.3214 20.7C83.2215 20.6 82.7214 19.4 82.6214 19.3C82.4214 18.7 82.0214 18.2 81.7214 17.6C81.4214 17 81.0214 16.5 80.5214 16C80.3214 15.9 80.1214 15.6 79.9214 15.7C79.7214 15.8 79.8214 16.1 79.8214 16.3C80.0215 18.8 80.4214 21.2 80.8214 23.7C80.9214 24.1 81.0214 24.3 81.4214 24.4C82.7214 24.8 83.5215 26.1 83.3214 27.4C83.3214 27.6 83.2214 27.8 83.2214 27.9C83.0214 29.4 82.9214 31 81.8214 32.2C81.7215 32.3 81.7215 32.4 81.8214 32.5C82.1214 32.9 82.3214 33.2 82.6214 33.6C82.7214 33.8 82.9214 33.8 83.1214 33.6C83.3214 33.4 83.5214 33.1 83.6214 32.8C84.3214 31.3 84.7215 29.8 84.8214 28.2C84.8214 28.1 84.7214 27.8 84.9214 27.8C85.1214 27.8 85.2215 27.9 85.3214 28C86.3214 28.8 87.3214 29.7 88.4214 30.3C89.2214 30.8 90.1214 31.3 91.1214 31.5C91.6214 31.6 91.7214 31.5 91.6214 31C91.5214 30.6 91.4214 30.3 91.2214 30C90.2214 28.1 88.8214 26.6 87.4214 25.1C87.0214 24.7 86.6214 24.2 86.2214 23.7C86.0214 23.5 85.8214 23.3 85.6214 23.2C85.5214 23.1 85.3214 23 85.4214 22.8C85.4214 22.6 85.4214 22.6 85.5214 22.4C85.8214 21.4 86.3214 20.5 86.9214 19.7C87.6214 18.7 88.4214 17.9 89.1214 16.9C89.4214 16.5 89.7214 16.1 89.9214 15.6ZM63.1214 29C63.2214 26.2 63.2214 23.8 63.0214 21.4C62.9214 19.9 62.7214 18.3 62.2214 16.9C62.0214 16.2 61.7214 15.5 61.2214 14.9C60.8214 14.5 60.5214 14.5 60.2214 15C60.0214 15.3 59.9214 15.6 59.8214 15.9C59.5214 16.5 59.5214 17.1 59.9214 17.7C60.7214 19 60.5214 20.4 59.5214 21.5C59.3214 21.7 59.3214 21.9 59.3214 22.2C59.4214 23.8 59.4214 25.4 59.5214 27C59.7214 28.8 59.9214 30.5 60.4214 32.2C60.6214 32.9 60.9214 33.6 61.4214 34.2C61.5214 34.4 61.7214 34.6 61.9214 34.3C62.3214 33.8 62.7214 33.3 62.7214 32.6C63.0214 31.2 63.1214 29.9 63.1214 29ZM78.9214 24.9C79.2214 24.8 79.2215 24.7 79.3214 24.5C79.4214 24.3 79.5214 24.2 79.4214 24.1C78.9214 23 78.8214 22 78.6214 20.8C78.6214 20.7 78.5215 20.5 78.3214 20.4C76.6214 21.6 75.4214 21.5 73.8214 20.3C73.6214 20.2 73.2214 20.3 72.9214 20.4C72.2214 20.6 71.6214 21 71.2214 21.6C70.4214 22.7 70.0214 23.9 70.6214 25.2C71.2214 26.5 72.2214 27.2 73.7214 27.3C75.4214 27.4 76.9214 26.8 78.0214 25.6C78.2214 25.4 78.3214 25.1 78.5214 25C78.7214 25 78.5214 25.1 78.9214 24.9Z" fill="black"/>
<path d="M127.721 13.6C128.021 14.1 128.521 14.5 128.921 14.9C130.621 16.8 131.921 18.9 132.221 21.5C132.421 23.3 132.121 25 131.421 26.6C131.021 27.5 130.321 28.2 129.421 28.7C128.221 29.4 126.921 29.7 125.621 30C124.221 30.3 122.921 29.8 121.721 29.1C121.521 29 121.421 28.9 121.221 28.8H121.121C121.121 29.1 121.121 29.4 121.021 29.8C120.821 30.7 120.021 31.1 119.121 30.9C118.421 30.8 117.821 30.4 117.321 30.1C116.021 29.2 114.821 28.2 113.721 27.1C113.521 26.9 113.321 26.7 113.021 26.4C113.021 26.7 113.021 27 113.021 27.2C113.021 28.9 112.821 30.6 112.021 32.2C111.921 32.5 111.721 32.8 111.521 33C110.621 34 109.321 33.9 108.621 32.8C108.621 32.7 108.521 32.7 108.521 32.6C108.121 31.8 108.121 31.8 107.421 32.3C105.921 33.4 104.321 33.9 102.521 34C100.421 34.1 98.4215 33.7 96.8215 32.3C96.5215 32 96.2215 31.7 96.1215 31.2C96.0215 30.8 95.7215 30.4 95.5215 30C94.8215 28.3 94.6215 26.5 94.3215 24.7C93.9215 21.5 93.6215 18.4 93.4215 15.2C93.4215 14.6 93.3215 14 93.4215 13.3C93.5215 12.7 93.9215 12.2 94.4215 11.9C95.4215 11.3 96.4215 11 97.5215 10.8C99.1215 10.5 100.721 10.4 102.321 10.7C102.621 10.8 102.921 10.9 103.221 11C104.321 11.5 104.721 12.6 104.221 13.6C103.921 14.2 103.421 14.7 102.921 15.1C101.721 16 100.421 16.6 98.9215 16.6C98.6215 16.6 98.5215 16.7 98.6215 17C98.8215 17.6 99.0215 18.2 99.1215 18.8C99.2215 19.1 99.3215 19.1 99.5215 19C100.421 18.6 101.421 18.4 102.521 18.4C104.021 18.5 105.021 19.8 104.521 21.2C103.921 23.1 102.921 24.1 100.921 24.3C100.621 24.3 100.521 24.4 100.621 24.7C100.821 25.4 101.021 26.2 101.121 27C101.121 27.3 101.221 27.3 101.521 27.2C103.321 26.5 105.121 26.5 107.021 27.1C107.421 27.2 107.321 27 107.321 26.8C107.121 24.5 106.921 22.2 106.721 20C106.521 17.9 106.321 15.8 106.021 13.6C106.021 13.3 106.121 13 106.221 12.7C106.821 11.2 107.821 10.1 109.421 9.40001C112.321 8.20001 115.121 8.50001 117.721 10.1C117.921 10.2 118.121 10.3 118.121 10C118.321 8.30001 119.021 6.80001 119.821 5.30001C120.221 4.50001 120.821 3.80001 121.521 3.30001C123.321 2.10001 125.721 2.40001 127.321 4.00001C128.821 5.50001 129.321 7.30001 129.321 9.30001C129.321 10.4 129.221 11.6 128.821 12.6C128.821 12.7 128.821 12.8 128.821 12.9C128.921 13.3 128.821 13.5 128.421 13.7C128.321 13.7 128.221 13.8 128.221 13.7C128.221 13.6 127.921 13.7 127.721 13.6ZM128.121 11.9C128.121 10.2 127.921 8.70001 127.221 7.30001C126.921 6.60001 126.421 6.10001 125.821 5.60001C125.221 5.20001 124.621 4.80001 123.821 4.90001C122.421 5.10001 121.521 6.00001 121.021 7.20001C120.521 8.50001 120.421 9.80001 120.521 11.2C120.721 13.1 121.721 14.6 123.121 15.8C123.921 16.5 124.821 17.1 125.721 17.8C126.321 18.2 126.821 18.7 127.321 19.3C127.721 19.9 128.221 20.5 128.221 21.3C128.221 22.1 128.021 22.9 127.621 23.7C127.321 24.4 126.721 24.8 126.021 24.8C124.921 24.9 124.021 24.6 123.121 24C121.321 22.9 120.221 21.4 120.421 19.2C120.421 18.9 120.321 18.7 120.021 18.6C119.721 18.5 119.421 18.6 119.321 18.9C119.221 19.1 119.221 19.3 119.221 19.6C119.121 21.8 119.921 23.6 121.221 25.3C122.421 26.7 123.821 27.5 125.721 27.5C127.321 27.4 128.421 26.8 129.321 25.6C130.521 23.9 130.721 22 130.121 20C130.021 19.7 130.021 19.4 129.821 19.2C128.921 18 127.821 17 126.721 16.1C125.621 15.3 124.621 14.4 123.921 13.3C123.121 12.1 122.621 10.9 123.021 9.40001C123.321 7.80001 124.721 7.40001 125.921 8.40001C126.521 8.90001 126.921 9.70001 127.321 10.4C127.421 10.8 127.621 11.3 128.121 11.9ZM100.521 12.7C99.9215 12.6 99.3215 12.7 98.7215 12.7C97.4215 12.8 96.1215 12.9 94.9215 13.3C94.6215 13.4 94.5215 13.5 94.5215 13.8C95.0215 17.6 95.6215 21.4 96.1215 25.1C96.3215 26.7 96.7215 28.4 96.8215 30C96.8215 30.5 97.1215 30.7 97.5215 30.9C98.8215 31.3 100.121 31.5 101.421 31.4C103.121 31.3 104.821 30.8 106.321 30.1C106.521 30 106.921 30 106.921 29.7C106.921 29.4 106.521 29.3 106.321 29.2C104.621 28.6 102.921 28.5 101.121 29C100.621 29.1 100.321 29.1 100.021 28.6C99.8215 28.3 99.7215 27.9 99.6215 27.5C99.3215 26 99.3215 24.5 99.0215 23.1C99.0215 22.9 99.0215 22.8 99.3215 22.8C99.7215 22.8 100.021 22.7 100.321 22.5C100.821 22.1 101.421 21.8 101.921 21.4C102.221 21.2 102.421 20.9 102.621 20.6C102.721 20.3 102.621 20.1 102.321 20.1C102.021 20 101.721 20.1 101.421 20.1C100.621 20.2 99.7215 20.3 98.9215 20.2C98.4215 20.2 98.2215 20 98.2215 19.6C98.0215 18.5 97.8215 17.4 97.5215 16.3C97.4215 15.9 97.5215 15.6 97.8215 15.5C98.4215 15.2 98.8215 14.8 99.4215 14.5C100.121 14.1 100.921 13.7 101.521 13.2C101.621 13.1 101.821 13 101.821 12.9C101.721 12.7 101.521 12.8 101.421 12.7C101.021 12.7 100.821 12.7 100.521 12.7ZM119.121 28.7C118.921 28.3 118.821 28 118.721 27.7C117.921 25.9 116.921 24.4 115.621 23C114.921 22.2 114.421 21.3 113.821 20.4C113.721 20.2 113.721 20.1 113.821 19.9C114.121 19.5 114.421 19 114.721 18.6C115.321 17.7 116.021 16.9 116.521 15.9C117.321 14.3 116.921 13.2 115.321 12.4C115.221 12.3 115.021 12.3 114.921 12.2C113.821 11.8 112.721 11.6 111.621 11.6C110.421 11.7 109.321 11.9 108.321 12.6C108.021 12.8 107.921 13 108.021 13.4C108.321 14.3 108.521 15.1 108.721 16C109.321 18.8 109.621 21.6 109.921 24.4C110.121 26.5 110.321 28.5 110.221 30.6C110.221 31 110.121 31.3 110.121 31.7C110.121 31.9 110.021 32.1 110.221 32.2C110.421 32.3 110.521 32 110.621 31.8C110.821 31.5 110.921 31.1 111.021 30.7C111.521 28.6 111.521 26.5 111.021 24.4C110.921 24.1 110.921 23.9 110.921 23.6C110.921 23.2 111.121 23 111.521 23C111.921 23 112.221 23.3 112.421 23.6C112.521 23.7 112.621 23.9 112.821 24C114.321 25.2 115.921 26.4 117.421 27.5C117.721 27.9 118.321 28.3 119.121 28.7ZM119.821 16.1C119.721 16.2 119.721 16.3 119.721 16.3C119.721 16.4 119.621 16.5 119.621 16.5C119.521 16.7 119.521 16.8 119.721 16.8C121.021 17.2 121.721 18.1 122.121 19.3C122.321 20 122.721 20.6 123.321 21.1C123.821 21.6 124.521 22.1 125.221 22.3C125.421 22.4 125.721 22.5 125.921 22.2C126.221 21.8 125.921 20.9 125.521 20.7C123.521 19.3 121.421 18 119.821 16.1ZM126.121 12.6C125.921 12.2 125.721 11.8 125.521 11.4C125.221 10.8 125.021 10.3 124.721 9.70001C124.621 9.60001 124.621 9.40001 124.421 9.50001C124.221 9.60001 124.321 9.70001 124.321 9.90001C124.321 10.5 124.421 11 124.621 11.5C124.821 12.2 125.321 12.6 126.121 12.6Z" fill="black"/>
<path d="M43.2215 12C43.1215 13.4 42.8215 14.9 42.1215 16.3C41.8215 17 41.4215 17.7 40.6215 18C39.5215 18.5 38.6215 18 37.8215 17.2C36.9215 16.4 36.4215 15.3 36.0215 14.1C35.6215 13.1 35.3215 12 35.1215 10.9C35.0215 10.5 34.9215 10.1 34.8215 9.70001C34.6215 9.20001 34.4215 9.20001 34.0215 9.60001C33.4215 10.3 33.2215 11.1 33.2215 12C33.1215 13.6 33.5215 15 34.1215 16.4C34.5215 17.2 35.2215 17.8 35.9215 18.3C37.2215 19.4 38.5215 20.3 39.8215 21.4C42.5215 23.8 43.8215 26.8 43.3215 30.4C42.8215 34.1 40.9215 36.8 37.4215 38.1C36.2215 38.5 35.7215 38.7 34.5215 39.1C33.4215 39.5 31.6215 39.2 30.6215 38.8C28.8215 38.2 27.2215 37.1 25.8215 35.8C23.6215 33.8 22.1215 31.4 21.4215 28.5C20.8215 26 21.1215 23.6 22.4215 21.3C22.5215 21.1 22.7215 20.8 22.8215 20.6C23.1215 20.3 23.2215 20.1 23.6215 19.9C24.1215 19.6 24.5215 19.5 25.1215 19.5C25.6215 19.5 26.0215 19.8 26.5215 20.1C27.2215 20.7 27.7215 21.4 28.1215 22.2C28.6215 23.2 28.9215 24.2 29.2215 25.3C29.6215 26.8 30.5215 28 31.6215 29.1C32.3215 29.7 32.8215 29.7 33.5215 29.3C34.3215 28.8 34.7215 28 34.5215 27.2C34.3215 26.3 33.8215 25.6 33.2215 25C31.7215 23.3 30.0215 21.7 28.5215 20C27.1215 18.3 26.0215 16.4 25.7215 14.2C25.5215 13.2 25.5215 12.1 25.8215 11.1C26.0215 10.1 26.0215 9.00001 26.2215 8.00001C26.7215 5.40001 27.9215 3.40001 30.2215 2.00001C31.1215 1.40001 32.0215 1.00001 33.1215 0.800005C34.6215 0.600005 36.0215 1.00001 37.3215 1.80001C38.1215 2.30001 38.8215 2.70001 39.6215 3.30001C40.0215 3.60001 40.2215 3.90001 40.6215 4.50001C41.0215 5.00001 41.6215 6.00001 42.0215 6.80001C42.8215 8.40001 43.2215 10.1 43.2215 12ZM23.3215 25.3C23.2215 26.1 23.3215 27 23.5215 27.8C24.3215 31.2 26.4215 33.6 29.3215 35.5C31.1215 36.7 33.1215 37.2 35.3215 36.7C39.2215 35.8 41.2215 32.9 41.4215 29.4C41.5215 26.7 40.4215 24.4 38.4215 22.6C37.1215 21.4 35.7215 20.5 34.4215 19.3C33.0215 18.1 32.1215 16.6 32.0215 14.7C32.0215 14.2 32.0215 13.6 32.0215 13.1C32.0215 12.5 32.1215 11.9 32.1215 11.3C32.2215 10.3 32.5215 9.30001 33.3215 8.50001C34.1215 7.80001 35.0215 7.90001 35.6215 8.70001C35.9215 9.10001 36.1215 9.60001 36.2215 10C36.5215 11 36.8215 11.9 37.1215 12.9C37.5215 14 37.9215 15.1 38.8215 16C39.6215 16.8 40.0215 16.7 40.5215 15.7C41.3215 13.9 41.7215 12 41.3215 10C40.6215 6.70001 38.5215 4.50001 35.6215 3.00001C34.3215 2.30001 33.0215 2.50001 31.8215 3.10001C30.2215 3.90001 29.3215 5.30001 28.6215 6.90001C28.2215 8.00001 28.0215 9.10001 27.8215 10.2C27.4215 12.9 28.1215 15.3 29.8215 17.4C31.1215 19.1 32.6215 20.5 34.1215 22C34.9215 22.9 35.7215 23.8 36.3215 24.8C37.1215 26.2 37.4215 27.6 36.7215 29.1C35.5215 31.9 31.8215 33.7 29.0215 30.5C26.8215 27.9 25.6215 24.9 25.7215 21.5C25.7215 21.2 25.6215 21 25.3215 20.9C25.0215 20.8 24.8215 20.9 24.6215 21.1C24.3215 21.4 24.1215 21.7 24.0215 22C23.6215 23.2 23.4215 24.2 23.3215 25.3Z" fill="black"/>
<path d="M112.421 13.8C113.621 13.9 114.321 14.7 114.121 15.9C113.921 16.9 113.321 17.7 112.421 18.2C111.421 18.8 110.421 18.4 110.021 17.3C109.321 15.2 110.421 13.9 112.421 13.8ZM112.221 15.6C111.921 15.7 111.721 15.7 111.421 15.8C111.121 15.8 111.021 16 111.121 16.3C111.221 16.6 111.221 16.9 111.521 17C111.821 17 111.921 16.7 112.121 16.5C112.221 16.3 112.321 16.1 112.421 15.9C112.421 15.8 112.421 15.6 112.221 15.6Z" fill="black"/>
<path d="M63.3215 21.4C63.2215 19.9 63.0215 18.3 62.5215 16.9C62.3215 16.2 62.0215 15.5 61.5215 14.9C61.1215 14.5 60.8215 14.5 60.5215 15C60.3215 15.3 60.2215 15.6 60.1215 15.9C59.8215 16.5 59.8215 17.1 60.2215 17.7C61.0215 19 60.8215 20.4 59.8215 21.5C59.6215 21.7 59.6215 21.9 59.6215 22.2C59.7215 23.8 59.7215 25.4 59.8215 27C60.0215 28.8 60.2215 30.5 60.7215 32.2C60.9215 32.9 61.2215 33.6 61.7215 34.2C61.8215 34.4 62.0215 34.6 62.2215 34.3C62.6215 33.8 63.0215 33.3 63.0215 32.6C63.1215 31.3 63.2215 29.9 63.2215 29C63.4215 26.2 63.5215 23.8 63.3215 21.4Z" fill="#F7DA00"/>
<path d="M106.621 29.4C104.921 28.8 103.221 28.7 101.421 29.2C100.921 29.3 100.621 29.3 100.321 28.8C100.121 28.5 100.021 28.1 99.9214 27.7C99.6214 26.2 99.6214 24.7 99.3214 23.3C99.3214 23.1 99.3214 23 99.6214 23C100.021 23 100.321 22.9 100.621 22.7C101.121 22.3 101.721 22 102.221 21.6C102.521 21.4 102.721 21.1 102.921 20.8C103.021 20.5 102.921 20.3 102.621 20.3C102.321 20.2 102.021 20.3 101.721 20.3C100.921 20.4 100.021 20.5 99.2214 20.4C98.7214 20.4 98.5214 20.2 98.5214 19.8C98.3214 18.7 98.1214 17.6 97.8214 16.5C97.7214 16.1 97.8214 15.8 98.1214 15.7C98.7214 15.4 99.1214 15 99.7214 14.7C100.421 14.3 101.221 13.9 101.821 13.4C101.921 13.3 102.121 13.2 102.121 13.1C102.021 12.9 101.821 13 101.721 12.9C101.421 12.9 101.121 12.9 100.921 12.9C100.321 12.8 99.7214 12.9 99.1214 12.9C97.8214 13 96.5214 13.1 95.3214 13.5C95.0214 13.6 94.9214 13.7 94.9214 14C95.4214 17.8 96.0214 21.6 96.5214 25.3C96.7214 26.9 97.1214 28.6 97.2214 30.2C97.2214 30.7 97.5214 30.9 97.9214 31.1C99.2214 31.5 100.521 31.7 101.821 31.6C103.521 31.5 105.221 31 106.721 30.3C106.921 30.2 107.321 30.2 107.321 29.9C107.221 29.6 106.921 29.5 106.621 29.4Z" fill="#F7DA00"/>
<path d="M80.4215 26.4C79.9215 26.3 79.3215 26.7 79.1215 27.2C78.8215 28.1 78.3215 29 77.4215 29.5C75.3215 31 73.0215 31.1 70.7215 30C66.5215 28 66.0215 22.3 69.8215 19.6C71.7215 18.3 74.3215 18.2 75.8215 19.7C76.0215 19.9 76.1215 19.8 76.2215 19.7C76.8215 19.3 76.9215 18.6 76.4215 18C76.1215 17.6 75.7215 17.3 75.3215 17C73.2215 15.7 71.0215 15.2 68.5215 15.3C66.9215 15.4 65.7215 16.2 64.7215 17.4C64.5215 17.6 64.5215 17.9 64.5215 18.2C64.6215 18.7 64.7215 19.2 64.8215 19.7C65.2215 22.7 65.3215 25.7 65.1215 28.7C65.1215 29.5 65.1215 29.3 65.2215 30.1C65.4215 30.6 65.7215 30.7 66.4215 31.1C67.7215 31.7 69.2215 32.9 71.2215 33.2C72.6215 33.4 74.8215 33.2 76.1215 32.7C78.6215 31.4 79.0215 30.7 80.5215 28.6C80.7215 28.1 80.9215 27.6 80.8215 27.1C80.9215 26.8 80.8215 26.5 80.4215 26.4Z" fill="#F7DA00"/>
<path d="M91.4215 29.9C90.4215 28 89.0215 26.5 87.6215 25C87.2215 24.6 86.8215 24.1 86.4215 23.6C86.2215 23.4 86.0215 23.2 85.8215 23.1C85.7215 23 85.5215 22.9 85.6215 22.7C85.6215 22.5 85.6215 22.5 85.7215 22.3C86.0215 21.3 86.5215 20.4 87.1215 19.6C87.8215 18.6 88.6215 17.8 89.3215 16.8C89.7215 16.3 89.9215 15.8 90.2215 15.3C90.1215 15.2 90.0215 15 89.8215 15.2C88.1215 16.3 86.5215 17.6 85.1215 19C84.4215 19.8 84.4215 21 83.6215 20.4C83.5215 20.3 83.0215 19.1 82.9215 19C82.7215 18.4 82.3215 17.9 82.0215 17.3C81.7215 16.7 81.3215 16.2 80.8215 15.7C80.6215 15.6 80.4215 15.3 80.2215 15.4C79.9215 15.7 80.0215 16 80.0215 16.2C80.2215 18.7 80.6215 21.1 81.0215 23.6C81.1215 24 81.2215 24.2 81.6215 24.3C82.9215 24.7 83.7215 26 83.5215 27.3C83.5215 27.5 83.4215 27.7 83.4215 27.8C83.2215 29.3 83.1215 30.9 82.0215 32.1C81.9215 32.2 81.9215 32.3 82.0215 32.4C82.3215 32.8 82.5215 33.1 82.8215 33.5C82.9215 33.7 83.1215 33.7 83.3215 33.5C83.5215 33.3 83.7215 33 83.8215 32.7C84.5215 31.2 84.9215 29.7 85.0215 28.1C85.0215 28 84.9215 27.7 85.1215 27.7C85.3215 27.7 85.4215 27.8 85.5215 27.9C86.5215 28.7 87.5215 29.6 88.6215 30.2C89.4215 30.7 90.3215 31.2 91.3215 31.4C91.8215 31.5 91.9215 31.4 91.8215 30.9C91.8215 30.6 91.6215 30.3 91.4215 29.9Z" fill="#F7DA00"/>
<path d="M41.4215 10.1C40.7215 6.80001 38.6215 4.60001 35.7215 3.10001C34.4215 2.40001 33.1215 2.60001 31.9215 3.20001C30.3215 4.00001 29.4215 5.40001 28.7215 7.00001C28.3215 8.10001 28.1215 9.20001 27.9215 10.3C27.5215 13 28.2215 15.4 29.9215 17.5C31.2215 19.2 32.7215 20.6 34.2215 22.1C35.0215 23 35.8215 23.9 36.4215 24.9C37.2215 26.3 37.5215 27.7 36.8215 29.2C35.6215 32 31.9215 33.8 29.1215 30.6C26.9215 28 25.7215 25 25.8215 21.6C25.8215 21.3 25.7215 21.1 25.4215 21C25.1215 20.9 24.9215 21 24.7215 21.2C24.4215 21.5 24.2215 21.8 24.1215 22.1C23.7215 23.1 23.5215 24.1 23.5215 25.2C23.4215 26 23.5215 26.9 23.7215 27.7C24.5215 31.1 26.6215 33.5 29.5215 35.4C31.3215 36.6 33.3215 37.1 35.5215 36.6C39.4215 35.7 41.4215 32.8 41.6215 29.3C41.7215 26.6 40.6215 24.3 38.6215 22.5C37.3215 21.3 35.9215 20.4 34.6215 19.2C33.0215 18.1 32.1215 16.6 32.0215 14.7C32.0215 14.2 32.0215 13.6 32.0215 13.1C32.0215 12.5 32.1215 11.9 32.1215 11.3C32.2215 10.3 32.5215 9.30001 33.3215 8.50001C34.1215 7.80001 35.0215 7.90001 35.6215 8.70001C35.9215 9.10001 36.1215 9.60001 36.2215 10C36.5215 11 36.8215 11.9 37.1215 12.9C37.5215 14 37.9215 15.1 38.8215 16C39.6215 16.8 40.0215 16.7 40.5215 15.7C41.4215 14 41.8215 12.1 41.4215 10.1Z" fill="#F7DA00"/>
<path d="M129.621 19.2C128.721 18 127.621 17 126.521 16.1C125.421 15.3 124.421 14.4 123.721 13.3C122.921 12.1 122.421 10.9 122.821 9.40001C123.121 7.80001 124.521 7.40001 125.721 8.40001C126.321 8.90001 126.721 9.70001 127.121 10.4C127.421 10.9 127.621 11.4 128.021 12C128.021 10.3 127.821 8.80001 127.121 7.40001C126.821 6.70001 126.321 6.20001 125.721 5.70001C125.121 5.30001 124.521 4.90001 123.721 5.00001C122.321 5.20001 121.421 6.10001 120.921 7.30001C120.421 8.60001 120.321 9.90001 120.421 11.3C120.621 13.2 121.621 14.7 123.021 15.9C123.821 16.6 124.721 17.2 125.621 17.9C126.221 18.3 126.721 18.8 127.221 19.4C127.621 20 128.121 20.6 128.121 21.4C128.121 22.2 127.921 23 127.521 23.8C127.221 24.5 126.621 24.9 125.921 24.9C124.821 25 123.921 24.7 123.021 24.1C121.221 23 120.121 21.5 120.321 19.3C120.321 19 120.221 18.8 119.921 18.7C119.621 18.6 119.321 18.7 119.221 19C119.121 19.2 119.121 19.4 119.121 19.7C119.021 21.9 119.821 23.7 121.121 25.4C122.321 26.8 123.721 27.6 125.621 27.6C127.221 27.5 128.321 26.9 129.221 25.7C130.421 24 130.621 22.1 130.021 20.1C129.821 19.7 129.721 19.5 129.621 19.2Z" fill="#F7DA00"/>
<path d="M115.521 23C114.821 22.2 114.321 21.3 113.721 20.4C113.621 20.2 113.621 20.1 113.721 19.9C114.021 19.5 114.321 19 114.621 18.6C115.221 17.7 115.921 16.9 116.421 15.9C117.221 14.3 116.821 13.2 115.221 12.4C115.121 12.3 114.921 12.3 114.821 12.2C113.721 11.8 112.621 11.6 111.521 11.6C110.321 11.7 109.221 11.9 108.221 12.6C107.921 12.8 107.821 13 107.921 13.4C108.221 14.3 108.421 15.1 108.621 16C109.221 18.8 109.521 21.6 109.821 24.4C110.021 26.5 110.221 28.5 110.121 30.6C110.121 31 110.021 31.3 110.021 31.7C110.021 31.9 109.921 32.1 110.121 32.2C110.321 32.3 110.421 32 110.521 31.8C110.721 31.5 110.821 31.1 110.921 30.7C111.421 28.6 111.421 26.5 110.921 24.4C110.821 24.1 110.821 23.9 110.821 23.6C110.821 23.2 111.021 23 111.421 23C111.821 23 112.121 23.3 112.321 23.6C112.421 23.7 112.521 23.9 112.721 24C114.221 25.2 115.821 26.4 117.321 27.5C117.921 27.9 118.421 28.3 119.221 28.7C119.021 28.3 118.921 28 118.821 27.7C117.921 26 116.821 24.4 115.521 23ZM112.421 18.3C111.421 18.9 110.421 18.5 110.021 17.4C109.321 15.2 110.321 13.9 112.421 13.9C113.621 14 114.321 14.8 114.121 16C113.921 17 113.321 17.8 112.421 18.3Z" fill="#F7DA00"/>
<path d="M56.8215 17.1C54.9215 15.8 52.6215 15.2 50.4215 14.9C49.2215 14.7 48.6215 14.6 47.5215 14.5C47.4215 14.5 46.9215 14.5 46.8215 14.5C45.5215 14.7 44.2215 15.1 43.4215 16.3C42.6215 17.4 42.7215 18 43.9215 18.6C44.7215 19 45.5215 19.5 46.3215 19.7C46.6215 19.8 46.7215 19.9 46.7215 20.2C47.0215 22.2 47.2215 24.3 47.5215 26.3C47.7215 27.9 47.9215 29.5 48.4215 31C48.7215 32 49.0215 32.9 49.6215 33.8C49.7215 33.9 49.7215 34.1 49.9215 34C50.0215 34 50.0215 33.8 50.1215 33.7C50.3215 32.9 50.4215 32.1 50.5215 31.3C50.7215 28.8 50.7215 26.4 50.7215 24.2C50.8215 22.9 50.8215 22 50.9215 21C50.9215 20.8 50.9215 20.6 51.2215 20.6C51.5215 20.6 51.8215 20.5 52.1215 20.6C53.3215 20.8 54.5215 20.8 55.7215 20.7C56.5215 20.7 57.3215 20.5 58.0215 20.1C58.6215 19.7 58.8215 19.2 58.4215 18.6C57.9215 17.9 57.4215 17.5 56.8215 17.1Z" fill="#F7DA00"/>
<path d="M225.221 30.9C225.421 31 225.521 30.9 225.521 30.7C225.521 30.3 225.721 30 225.821 29.6C226.021 29.1 226.321 28.7 226.621 28.2C226.821 27.9 226.621 27.6 226.321 27.6C226.221 27.6 226.221 27.7 226.121 27.8C225.821 28.5 225.421 29.3 225.021 29.9C224.621 30.6 224.621 30.6 225.221 30.9Z" fill="#F7DA00"/>
<path d="M230.421 20.3C230.321 20.3 230.221 20.4 230.221 20.5C229.921 20.9 229.621 21.4 229.421 21.8C229.121 22.3 229.121 22.3 229.621 22.5C229.621 22.5 229.621 22.5 229.721 22.5C229.821 22.5 229.921 22.5 229.921 22.4C230.021 21.8 230.321 21.2 230.621 20.6C230.621 20.5 230.521 20.4 230.421 20.3Z" fill="#F7DA00"/>
<path d="M224.321 30.4C224.521 30.4 224.521 30.3 224.521 30.2C224.621 29.9 224.721 29.5 224.921 29.2C225.221 28.7 225.421 28.1 225.721 27.6C225.921 27.3 225.621 27.2 225.521 27.1C225.321 27 225.321 27.2 225.221 27.3C224.721 28.1 224.321 29 223.721 29.7C223.721 29.8 223.621 29.8 223.721 29.9C223.821 30.1 224.021 30.2 224.321 30.4Z" fill="#F7DA00"/>
<path d="M226.621 31.5C227.221 31.7 227.921 31.8 228.621 31.9C228.821 31.9 228.921 31.8 228.921 31.7C229.121 31 229.421 30.5 229.821 29.9C230.021 29.5 230.021 29.5 229.621 29.4C229.421 29.4 229.321 29.4 229.321 29.6C229.221 29.9 229.021 30.2 228.921 30.5C228.721 30.9 228.421 31.3 228.021 31.7C228.021 31.4 228.021 31.1 228.121 30.9C228.321 30.4 228.521 30 228.821 29.5C228.821 29.4 229.021 29.3 228.821 29.2C228.721 29.1 228.621 29.3 228.621 29.4C228.321 30 228.121 30.5 227.821 31.1C227.721 31.3 227.621 31.5 227.421 31.6C227.221 31.8 227.121 31.7 227.021 31.4C227.021 31.3 227.021 31.2 227.021 31.1C227.121 30.7 227.321 30.3 227.521 29.9C227.621 29.6 227.821 29.3 228.021 29.1C228.021 29 228.121 28.9 228.021 28.9C227.921 28.9 227.921 28.9 227.821 29C227.821 29.1 227.721 29.1 227.721 29.2C227.321 29.9 227.021 30.7 226.621 31.4C226.321 31.4 226.421 31.4 226.621 31.5Z" fill="#F7DA00"/>
<path d="M229.421 31.8C229.621 31.8 229.821 31.8 230.021 31.7C230.121 31.7 230.121 31.6 230.221 31.6C230.321 30.9 230.721 30.4 231.021 29.8C231.021 29.7 231.121 29.7 231.121 29.6C231.021 29.4 230.421 29.5 230.321 29.7C230.021 30.3 229.721 31 229.321 31.6C229.121 31.8 229.221 31.8 229.421 31.8Z" fill="#F7DA00"/>
<path d="M225.821 31.2C225.921 31.3 226.021 31.2 226.021 31.1C226.121 30.7 226.321 30.3 226.521 29.9C226.721 29.5 227.021 29 227.221 28.6C227.321 28.5 227.321 28.4 227.221 28.3C227.121 28.2 227.021 28.3 226.921 28.4C226.921 28.5 226.821 28.6 226.821 28.7C226.421 29.4 226.121 30.2 225.721 30.8C225.521 31 225.521 31.1 225.821 31.2Z" fill="#F7DA00"/>
<path d="M223.121 10.2C223.421 9.8 223.221 9.2 223.321 8.8C223.021 9.2 222.921 9.7 222.821 10.1C222.821 10.2 222.821 10.3 222.921 10.4C223.121 10.5 223.121 10.3 223.121 10.2Z" fill="#F7DA00"/>
<path d="M222.821 18.8C222.921 18.2 222.921 17.6 222.821 17C222.421 13.5 221.021 10.5 218.521 8C217.021 6.4 215.121 5.4 212.821 5.5C211.121 5.6 209.621 6 208.221 7C205.321 9.2 203.821 12.2 203.921 15.9C204.021 18.3 204.821 20.4 206.521 22.1C209.621 25.1 213.321 26 217.421 24.9C220.721 24 222.521 21.8 222.821 18.8ZM214.521 17.6C213.221 18.1 211.821 17.6 211.121 16.2C210.721 15.5 210.621 14.8 210.721 13.7C210.821 13.2 211.121 12.4 211.921 11.9C212.221 11.7 213.921 11.2 214.321 11.3C215.221 11.4 215.821 12 216.221 12.7C217.221 14.5 216.421 16.8 214.521 17.6Z" fill="#F7DA00"/>
<path d="M220.721 26.8C220.821 26.9 220.821 26.9 220.921 26.8C221.321 26 221.821 25.2 222.321 24.4C222.121 24.6 221.921 24.8 221.721 25C221.521 25.2 221.221 25.4 221.021 25.5C220.121 26 220.121 26 220.721 26.8Z" fill="#F7DA00"/>
<path d="M222.321 28.8C222.421 28.9 222.521 28.9 222.521 28.7C222.621 27.8 223.221 27 223.721 26.3C224.121 25.8 224.121 25.8 223.621 25.2L223.521 25.3C223.021 26.3 222.621 27.3 221.921 28.1C221.821 28.2 221.821 28.3 221.921 28.3C222.121 28.6 222.221 28.7 222.321 28.8Z" fill="#F7DA00"/>
<path d="M221.721 28.2C221.921 27.1 222.521 26.2 223.021 25.3C223.121 25.2 223.121 25.1 223.221 25C223.321 24.8 223.221 24.7 223.121 24.6C223.021 24.5 222.921 24.7 222.921 24.8C222.421 25.7 221.921 26.6 221.321 27.4C221.221 27.5 221.221 27.6 221.321 27.7C221.421 27.8 221.521 28 221.721 28.2Z" fill="#F7DA00"/>
<path d="M227.721 18.6C227.621 18.5 227.521 18.6 227.521 18.7C227.321 19.1 227.021 19.5 226.821 19.9C226.721 20.1 226.721 20.3 226.821 20.4C226.921 20.5 226.921 20.6 227.021 20.7C227.121 20.8 227.221 20.9 227.321 20.6C227.421 20.1 227.721 19.6 227.921 19.1C227.921 19.1 227.921 19 228.021 18.9C228.021 18.7 227.821 18.6 227.721 18.6Z" fill="#F7DA00"/>
<path d="M198.721 29.9C198.721 29.8 198.721 29.8 198.621 29.8C198.321 29.8 198.121 29.8 197.921 30.1C197.421 30.8 196.821 31.4 196.221 32.1C196.021 32.3 195.921 32.4 195.721 32.6C196.021 32.7 196.121 32.7 196.321 32.5C196.521 32.2 196.821 31.9 197.021 31.6C197.521 31.1 197.821 30.4 198.621 30.2C198.721 30 198.721 30 198.721 29.9Z" fill="#F7DA00"/>
<path d="M197.021 32.6C197.321 32.4 197.521 32.2 197.821 32C198.221 31.7 198.421 31.3 198.421 30.7C197.921 31.3 197.421 32 196.921 32.6C197.021 32.6 197.021 32.6 197.021 32.6Z" fill="#F7DA00"/>
<path d="M187.521 23.3C187.921 23.1 188.321 22.8 188.721 22.6C188.921 22.4 188.721 22.2 188.721 22.1C188.621 21.9 188.521 22.1 188.421 22.2C188.121 22.4 187.821 22.6 187.421 22.9C187.321 23 187.221 23 187.221 23.2C187.521 23.1 187.221 23.5 187.521 23.3Z" fill="#F7DA00"/>
<path d="M224.821 16.9C225.321 16.3 225.321 16.1 224.921 15.6C224.621 15.9 224.921 16.4 224.821 16.9Z" fill="#F7DA00"/>
<path d="M225.821 16.7C225.721 16.6 225.621 16.5 225.521 16.7C225.221 17.3 224.721 17.9 224.821 18.5C224.821 18.8 224.721 19.1 224.721 19.3C224.721 19.5 224.821 19.5 224.921 19.5C225.021 19.5 225.121 19.4 225.121 19.3C225.321 18.9 225.621 18.5 225.821 18.1C226.321 17.3 226.321 17.3 225.821 16.7Z" fill="#F7DA00"/>
<path d="M229.521 19.7C229.421 19.7 229.421 19.8 229.321 19.8C229.121 20.2 228.921 20.6 228.721 20.9C228.621 21.1 228.521 21.3 228.421 21.5C228.321 21.7 228.521 21.8 228.621 21.8C228.821 21.9 228.721 21.7 228.821 21.6C229.021 21 229.421 20.5 229.721 20C229.821 20 229.721 19.8 229.521 19.7Z" fill="#F7DA00"/>
<path d="M228.721 19.2C228.621 19.1 228.521 19.1 228.421 19.3C228.121 19.8 227.821 20.3 227.621 20.9C227.521 21.1 227.721 21.2 227.821 21.3C227.921 21.3 228.021 21.3 228.021 21.2C228.321 20.7 228.621 20.1 228.921 19.6C228.921 19.3 228.821 19.3 228.721 19.2Z" fill="#F7DA00"/>
<path d="M230.021 22.6C230.021 22.7 230.221 22.7 230.321 22.7C230.521 22.7 230.821 22.8 230.921 22.6C231.021 22.3 231.221 21.9 231.321 21.6C231.421 21.4 231.221 21.2 231.121 21.2C231.021 21.1 230.921 21.3 230.921 21.4C230.721 21.8 230.521 22.1 230.221 22.4C230.121 22.4 230.021 22.5 230.021 22.6Z" fill="#F7DA00"/>
<path d="M227.121 18C227.021 17.9 226.921 17.9 226.921 17.8C226.821 17.7 226.721 17.7 226.621 17.8C226.321 18.2 226.121 18.6 225.821 19C225.721 19.1 225.721 19.2 225.821 19.3C226.021 19.4 226.221 19.5 226.321 19.6C226.421 19.6 226.421 19.5 226.521 19.5C226.721 19.1 227.021 18.7 227.221 18.4C227.321 18.3 227.321 18.1 227.121 18Z" fill="#F7DA00"/>
<path d="M236.121 10.8C235.921 11.2 235.721 11.6 235.521 12C235.521 12.1 235.521 12.2 235.621 12.2C235.721 12.2 235.721 12.2 235.721 12.1C235.921 11.6 236.221 11.3 236.521 10.8C236.321 10.7 236.221 10.7 236.121 10.8Z" fill="#F7DA00"/>
<path d="M202.921 22.2C203.121 21.9 203.221 21.7 203.421 21.4C203.521 21.2 203.421 21 203.321 20.9C203.121 20.8 203.121 21 203.021 21.1C202.721 21.6 202.521 22 202.221 22.5C202.021 22.8 202.121 23 202.221 23.3C202.521 22.9 202.721 22.5 202.921 22.2Z" fill="#F7DA00"/>
<path d="M202.421 18.6C201.921 19.3 201.621 19.9 201.821 20.4C202.021 20.1 202.221 19.7 202.421 19.4C202.621 19.1 202.621 18.9 202.421 18.6Z" fill="#F7DA00"/>
<path d="M204.121 24.1C204.321 23.8 204.521 23.5 204.721 23.2C204.821 23 204.721 22.9 204.621 22.8C204.421 22.7 204.421 22.9 204.321 23C203.921 23.6 203.521 24.1 203.221 24.7C202.821 25.2 202.821 25.3 203.321 25.9C203.521 25.2 203.821 24.7 204.121 24.1Z" fill="#F7DA00"/>
<path d="M202.821 20.4C203.021 20.1 202.921 19.9 202.721 19.7C202.321 20.2 202.121 20.8 201.821 21.4C201.721 21.5 201.821 21.7 201.921 21.9C202.221 21.4 202.521 20.9 202.821 20.4Z" fill="#F7DA00"/>
<path d="M203.321 23.6C203.621 23.2 203.821 22.9 204.121 22.5C204.221 22.3 204.121 21.9 203.921 21.9C203.721 21.8 203.721 22.1 203.621 22.2C203.321 22.7 203.021 23.3 202.621 23.8C202.421 24.1 202.421 24.4 202.621 24.7C202.921 24.2 203.121 23.9 203.321 23.6Z" fill="#F7DA00"/>
<path d="M239.021 9.4C239.021 9.1 239.121 8.8 239.121 8.4C239.121 8.2 239.121 8 239.221 7.8C239.321 6.7 239.221 6.5 238.221 6C235.821 4.7 233.221 4.4 230.521 4.7C229.621 4.8 228.721 5 227.921 5.4C226.421 6.1 225.621 7.4 225.321 9.1C225.121 10.1 225.221 11 225.421 11.9C225.521 12.6 225.721 13.4 226.121 14C226.721 14.8 227.321 15.6 228.121 16.3C229.021 17 229.921 17.6 230.921 18.3C231.721 18.8 232.521 19.3 233.021 20.1C233.621 21.1 233.921 22.1 233.421 23.2C232.921 24.2 232.021 24.7 230.921 24.8C229.721 24.9 228.621 24.4 227.621 23.8C226.921 23.3 226.321 22.7 226.021 21.8C226.021 21.6 225.821 21.6 225.721 21.4C225.621 21.2 225.421 21.2 225.321 21.4C224.721 22 224.321 22.8 223.721 23.5C223.621 23.6 223.721 23.7 223.821 23.8C224.021 24 224.221 24.2 224.421 24.4C226.521 26.4 228.921 27.8 231.821 27.9C233.821 28 235.621 27.3 237.021 25.9C238.721 24.2 239.321 22.1 239.221 19.8C239.121 18.2 238.721 16.7 237.721 15.5C237.621 15.4 237.521 15.2 237.321 15.2C236.221 14.4 235.121 13.7 234.121 12.8C233.221 12.1 233.221 11.1 234.021 10.3C235.121 9.2 237.121 8.6 238.621 9.8C238.921 9.8 238.921 9.7 239.021 9.4Z" fill="#F7DA00"/>
<path d="M236.821 12.7C236.921 12.8 237.021 12.7 237.121 12.6C237.321 12.3 237.521 12 237.721 11.7C237.721 11.6 237.821 11.6 237.821 11.5C237.821 11.4 237.721 11.3 237.721 11.3C237.621 11.2 237.621 11.3 237.521 11.4C237.321 11.8 237.121 12.1 236.821 12.5C236.721 12.5 236.621 12.6 236.821 12.7Z" fill="#F7DA00"/>
<path d="M223.521 29C223.821 28.3 224.221 27.6 224.621 27C224.721 26.9 224.721 26.8 224.821 26.7C224.721 26.5 224.621 26.4 224.521 26.3C224.421 26.2 224.321 26.3 224.221 26.4C223.621 27.2 223.221 28.1 222.621 28.9C222.621 29 222.521 29 222.521 29.1C222.521 29.2 223.121 29.7 223.221 29.7C223.421 29.6 223.321 29.4 223.421 29.2C223.521 29.1 223.521 29.1 223.521 29Z" fill="#F7DA00"/>
<path d="M236.021 12.6C236.221 12.7 236.321 12.6 236.421 12.5C236.721 12.1 236.921 11.7 237.221 11.3C237.221 11.2 237.321 11.2 237.321 11.1C237.321 11 237.221 10.9 237.121 10.9C237.021 10.8 236.921 10.9 236.821 11C236.521 11.4 236.321 11.8 236.021 12.2C235.921 12.3 235.821 12.4 236.021 12.6Z" fill="#F7DA00"/>
<path d="M203.921 27C204.121 26.6 204.221 26.2 204.421 25.8C204.721 25.2 205.121 24.6 205.421 24C205.621 23.7 205.421 23.6 205.221 23.5C205.021 23.3 205.021 23.6 204.921 23.7C204.421 24.5 204.021 25.4 203.521 26.2C203.421 26.3 203.421 26.4 203.521 26.5C203.621 26.6 203.721 26.8 203.921 27Z" fill="#F7DA00"/>
<path d="M232.821 29.7C232.721 29.7 232.621 29.7 232.621 29.8C232.521 29.9 232.521 30 232.421 30.1C232.221 30.5 232.121 30.9 231.821 31.2C231.721 31.3 231.721 31.4 231.621 31.4C231.521 31.3 231.521 31.2 231.521 31.1C231.621 30.7 231.821 30.4 231.921 30.1C231.921 30 232.121 29.9 231.921 29.8C231.821 29.7 231.721 29.8 231.621 30C231.321 30.6 231.021 31.2 230.621 31.8C230.921 31.7 231.121 31.7 231.321 31.6C231.821 31.5 232.221 31.1 232.621 30.8C232.721 30.7 232.721 30.7 232.721 30.6C232.621 30.4 232.721 30.2 232.821 30C232.821 29.9 232.921 29.8 232.821 29.7Z" fill="#F7DA00"/>
<path d="M204.621 28C204.821 27.2 205.121 26.5 205.521 25.8C205.721 25.4 205.921 25 206.121 24.7C206.321 24.4 206.021 24.3 205.921 24.2C205.721 24.1 205.721 24.3 205.721 24.4C205.321 25.3 204.921 26.2 204.521 27.1C204.221 27.5 204.121 27.5 204.621 28Z" fill="#F7DA00"/>
<path d="M210.721 31.4C210.921 31.5 211.321 31.4 211.421 31.2C211.621 30.6 211.921 30 212.221 29.5C212.521 28.9 212.821 28.3 213.121 27.7C213.321 27.3 213.321 27.3 212.821 27.2C212.721 27.2 212.521 27.1 212.321 27.4C211.821 28.7 211.321 29.9 210.721 31.2C210.721 31.3 210.721 31.4 210.721 31.4Z" fill="#F7DA00"/>
<path d="M212.021 31.5C212.321 31.5 212.421 31.4 212.621 31.1C213.121 29.8 213.721 28.6 214.521 27.4C214.021 27.2 213.821 27.3 213.621 27.8C213.621 27.9 213.521 28 213.521 28.1C213.021 29.2 212.521 30.2 212.021 31.3C211.821 31.4 211.821 31.5 212.021 31.5Z" fill="#F7DA00"/>
<path d="M213.921 30.8C213.921 30.7 214.021 30.6 214.021 30.5C214.421 29.5 214.921 28.5 215.321 27.5C215.321 27.4 215.521 27.2 215.321 27.2C215.121 27.2 214.921 27.1 214.821 27.4C214.521 28.6 214.021 29.6 213.521 30.7C213.421 30.9 213.321 31 213.221 31.3C213.621 31.4 213.821 31.2 213.921 30.8Z" fill="#F7DA00"/>
<path d="M216.621 29.6C216.721 29 216.921 28.4 217.321 27.9C217.521 27.6 217.621 27.3 217.821 27C217.821 26.9 217.921 26.8 217.821 26.8C217.621 26.8 217.321 26.8 217.221 27.1C216.721 28.2 216.221 29.4 215.621 30.6C215.821 30.5 216.021 30.3 216.221 30.2C216.421 30.1 216.621 29.9 216.621 29.6Z" fill="#F7DA00"/>
<path d="M214.521 31.1C214.621 31.2 214.821 31.1 214.921 31C215.021 30.9 215.021 30.8 215.021 30.8C215.221 30 215.621 29.3 215.921 28.6C216.121 28.2 216.321 27.7 216.621 27.2C216.321 27.3 216.021 27.2 215.921 27.5C215.521 28.7 215.021 29.7 214.521 30.8C214.521 30.9 214.321 31 214.521 31.1Z" fill="#F7DA00"/>
<path d="M209.621 31.2C209.721 31.2 209.821 31.2 209.921 31.3C210.221 31.4 210.321 31.3 210.321 31C210.321 30.9 210.321 30.9 210.321 30.8C210.721 29.6 211.221 28.4 211.821 27.3C211.821 27.2 211.921 27.1 211.921 27C211.721 26.8 211.221 26.9 211.121 27.1C210.621 28.4 210.121 29.6 209.521 30.8C209.421 31.1 209.421 31.2 209.621 31.2Z" fill="#F7DA00"/>
<path d="M205.521 28.9C205.521 29 205.521 29 205.521 28.9C205.721 29.1 205.821 29.1 205.921 28.9C206.421 27.8 207.121 26.8 207.721 25.8C207.821 25.6 207.821 25.5 207.621 25.4C207.421 25.3 207.321 25.4 207.321 25.5C207.021 26.1 206.821 26.7 206.521 27.3C206.321 27.7 206.221 28 206.021 28.4C206.021 28.5 205.921 28.6 205.821 28.5C205.721 28.5 205.721 28.4 205.721 28.3C205.721 28.1 205.721 27.9 205.721 27.6C205.921 26.8 206.421 26 206.821 25.3C207.021 25.1 206.821 24.8 206.521 24.7C206.421 24.7 206.321 24.8 206.321 24.9C205.921 25.7 205.521 26.5 205.121 27.3C204.821 28.3 204.721 28.3 205.521 28.9Z" fill="#F7DA00"/>
<path d="M206.721 30C206.921 30 206.921 29.9 206.921 29.9C207.321 28.7 208.021 27.5 208.721 26.4C208.821 26.2 208.821 26.1 208.621 26C208.421 25.9 208.221 25.9 208.121 26.2C207.521 27.2 207.021 28.3 206.321 29.3C206.221 29.4 206.121 29.5 206.221 29.7C206.421 29.7 206.621 29.8 206.721 30Z" fill="#F7DA00"/>
<path d="M208.821 31C208.921 31 208.921 31 208.821 31C209.021 31.1 209.121 31 209.121 30.9C209.421 29.6 210.021 28.4 210.521 27.1C210.621 27 210.721 26.8 210.521 26.7C210.321 26.6 210.221 26.6 210.121 26.9C209.721 28 209.121 29.1 208.521 30.1C208.021 30.8 208.021 30.8 208.821 31Z" fill="#F7DA00"/>
<path d="M218.321 27.1C218.221 27.4 218.021 27.7 217.921 28C217.821 28.3 217.721 28.5 217.621 28.8C218.221 28.1 218.721 27.3 219.221 26.4C218.721 26.5 218.421 26.7 218.321 27.1Z" fill="#F7DA00"/>
<path d="M207.521 30.4C207.721 30.5 207.821 30.5 207.821 30.3C208.421 29.1 209.021 27.9 209.721 26.7C209.721 26.6 209.821 26.6 209.821 26.5C209.821 26.3 209.721 26.3 209.621 26.3C209.421 26.2 209.421 26.4 209.321 26.5C208.721 27.7 208.121 28.9 207.421 30C207.221 30.2 207.321 30.3 207.521 30.4Z" fill="#F7DA00"/>
<path d="M186.521 12.2C186.721 12.1 187.021 12 187.221 12C187.321 12 187.521 11.9 187.521 11.7C187.521 11.6 187.521 11.5 187.521 11.4C187.521 11.3 187.421 11.2 187.421 11.3C187.021 11.5 186.721 11.7 186.421 11.9C186.321 12 186.321 12.2 186.421 12.3C186.321 12.3 186.421 12.2 186.521 12.2Z" fill="#F7DA00"/>
<path d="M167.321 21C168.021 20.2 168.821 19.5 169.721 18.9C169.821 18.8 169.821 18.7 169.821 18.6C169.821 18.3 169.721 18 169.721 17.6C169.621 17.7 169.521 17.8 169.521 17.8C168.821 18.5 168.221 19.3 167.521 20C167.121 20.3 167.121 20.7 167.321 21Z" fill="#F7DA00"/>
<path d="M166.921 16C167.021 16.1 167.021 15.9 167.121 15.9C167.721 15.4 168.321 14.9 169.121 14.5C169.421 14.3 169.521 14.1 169.521 13.8C169.521 13.7 169.521 13.6 169.521 13.4C168.721 14.2 167.921 14.9 167.121 15.6C167.021 15.6 167.021 15.7 167.021 15.8C166.921 15.8 166.921 15.9 166.921 16Z" fill="#F7DA00"/>
<path d="M167.221 17.3C167.921 16.8 168.521 16.2 169.321 15.8C169.421 15.7 169.521 15.6 169.521 15.5C169.521 15.3 169.521 15.1 169.521 14.8C169.021 15.3 168.521 15.8 168.121 16.2C167.821 16.5 167.521 16.8 167.121 17.1C167.021 17.2 166.921 17.4 167.021 17.5C167.121 17.5 167.221 17.3 167.221 17.3Z" fill="#F7DA00"/>
<path d="M167.121 19.3C167.221 19.3 167.221 19.2 167.321 19.2C167.921 18.5 168.621 17.9 169.321 17.3C169.621 17 169.721 16.8 169.521 16.3C168.721 17.1 168.021 17.8 167.221 18.5C167.021 18.7 167.021 18.8 167.021 19.1C167.021 19.1 167.021 19.2 167.121 19.3Z" fill="#F7DA00"/>
<path d="M169.621 20.7C170.021 20.3 170.121 20 169.821 19.5C169.021 20.3 168.321 21.2 167.521 22C167.221 22.3 167.221 22.5 167.321 22.9C168.121 22.1 168.921 21.4 169.621 20.7Z" fill="#F7DA00"/>
<path d="M167.621 25.3C167.721 25.1 167.821 25 167.921 24.9C168.621 24 169.321 23.2 170.121 22.4C170.221 22.3 170.421 22.2 170.321 21.9C170.221 21.7 170.221 21.4 170.121 21.1C170.021 21.1 170.021 21.1 170.021 21.2C169.221 22.1 168.421 23 167.521 23.8C167.421 23.9 167.421 23.9 167.421 24C167.521 24.5 167.621 24.9 167.621 25.3Z" fill="#F7DA00"/>
<path d="M167.121 10C167.221 10.1 167.321 9.9 167.421 9.9C167.821 9.7 168.221 9.4 168.621 9.1C168.621 9.1 168.621 9.1 168.621 9C168.521 9 168.421 9.1 168.321 9.1C168.021 9.2 167.721 9.3 167.321 9.4C167.121 9.4 167.121 9.6 167.121 9.7C167.121 9.9 167.021 10 167.121 10Z" fill="#F7DA00"/>
<path d="M178.421 11.4C178.321 11.4 178.221 11.4 178.121 11.5C177.921 11.8 177.821 12.1 177.721 12.4C177.721 12.6 177.721 12.7 177.821 12.8C177.821 12.9 177.921 13 178.021 13C178.121 13 178.121 12.9 178.121 12.8C178.121 12.4 178.321 12.1 178.421 11.8C178.421 11.5 178.521 11.4 178.421 11.4Z" fill="#F7DA00"/>
<path d="M167.121 14.5C167.821 13.9 168.621 13.3 169.421 12.8C169.521 12.7 169.621 12.6 169.621 12.5C169.621 12.3 169.621 12.1 169.621 11.8C168.821 12.5 168.221 13.1 167.421 13.6C167.021 13.9 166.921 14.2 167.021 14.6C167.021 14.6 167.021 14.6 167.121 14.5Z" fill="#F7DA00"/>
<path d="M177.121 33C177.221 32.8 177.421 32.7 177.621 32.5C178.121 32.1 178.121 31.9 177.821 31.2C177.221 31.9 176.621 32.6 176.021 33.3C176.421 33.4 176.821 33.4 177.121 33Z" fill="#F7DA00"/>
<path d="M168.021 12.2C168.421 12 168.721 11.7 169.121 11.5C169.621 11.2 169.721 10.9 169.621 10.3C168.821 10.9 168.121 11.5 167.321 12.1C167.021 12.3 166.921 12.6 167.021 12.9C167.321 12.6 167.721 12.4 168.021 12.2Z" fill="#F7DA00"/>
<path d="M167.921 26.4C168.521 25.5 169.321 24.7 170.121 23.9C170.321 23.7 170.421 23.6 170.621 23.4C170.721 23.2 170.721 23.1 170.521 23C170.421 22.9 170.321 23.1 170.321 23.2L170.221 23.3C169.421 24.2 168.821 25.2 167.821 26C167.621 26.1 167.721 26.3 167.821 26.5C167.921 26.5 167.921 26.4 167.921 26.4Z" fill="#F7DA00"/>
<path d="M177.621 30.3C177.521 30.2 177.421 30.4 177.321 30.5C176.621 31.4 175.921 32.2 175.221 33.1C175.021 33.3 174.821 33.5 174.621 33.7C174.921 33.7 175.221 33.7 175.321 33.5C176.021 32.6 176.821 31.7 177.621 30.9C177.821 30.7 177.721 30.5 177.621 30.3Z" fill="#F7DA00"/>
<path d="M178.921 21.5C178.821 21.4 178.721 21.5 178.721 21.5C178.621 21.5 178.521 21.6 178.521 21.7C178.321 22.1 178.321 22.6 178.321 23.1C178.521 22.6 178.721 22.2 179.021 21.7C178.921 21.7 179.021 21.6 178.921 21.5Z" fill="#F7DA00"/>
<path d="M180.021 24.4C180.421 23.4 180.921 22.4 181.421 21.4C181.421 21.3 181.521 21.2 181.521 21.1C181.021 21.1 180.721 21.3 180.521 21.8C180.321 22.4 180.021 22.9 179.721 23.5C179.521 23.9 179.321 24.3 179.121 24.8C179.421 24.7 179.621 24.7 179.821 24.6C179.921 24.6 180.021 24.5 180.021 24.4Z" fill="#F7DA00"/>
<path d="M178.221 24.9C178.421 25 178.721 24.8 178.821 24.6C179.121 23.6 179.621 22.7 180.021 21.8C180.121 21.7 180.221 21.5 180.121 21.4C180.021 21.3 179.721 21.4 179.621 21.5C179.521 21.5 179.421 21.7 179.421 21.8C179.021 22.6 178.721 23.4 178.321 24.2C178.221 24.4 178.221 24.5 178.121 24.7C178.121 24.7 178.021 24.9 178.221 24.9Z" fill="#F7DA00"/>
<path d="M181.321 23.8C181.421 23.6 181.521 23.3 181.621 23.1C181.821 22.7 181.821 22.4 181.721 21.9C181.221 22.8 180.821 23.6 180.421 24.4C180.921 24.4 181.221 24.2 181.321 23.8Z" fill="#F7DA00"/>
<path d="M170.721 25.8C171.221 25.4 171.321 25 171.021 24.5C170.921 24.4 171.021 24.2 170.921 24.2C170.821 24.2 170.721 24.3 170.621 24.4C169.821 25.3 169.121 26.3 168.321 27.2C167.921 27.6 167.921 28 168.121 28.6C169.021 27.5 169.821 26.6 170.721 25.8Z" fill="#F7DA00"/>
<path d="M168.521 30.4C169.321 29.1 170.421 28.2 171.521 27.1C172.121 26.6 172.121 26.6 171.721 25.9C171.721 25.9 171.721 25.9 171.721 25.8C171.621 25.5 171.521 25.6 171.321 25.8C170.421 26.9 169.521 28 168.621 29.1C168.221 29.6 168.321 30 168.521 30.4C168.521 30.5 168.421 30.5 168.521 30.4Z" fill="#F7DA00"/>
<path d="M187.521 10.6C187.521 10.5 187.421 10.5 187.321 10.5C186.821 10.5 186.521 10.9 186.221 11.3C186.621 11.2 187.021 11 187.421 10.9C187.521 10.8 187.521 10.7 187.521 10.6Z" fill="#F7DA00"/>
<path d="M168.621 32.4C169.221 31.5 169.921 30.7 170.621 30C171.321 29.3 172.121 28.6 172.921 28C173.021 28 173.021 27.9 173.021 27.9C173.021 27.6 172.721 27.5 172.521 27.3C172.321 27.2 172.321 27.4 172.221 27.5C171.021 28.8 169.921 30.2 168.621 31.5C168.521 31.6 168.521 31.7 168.521 31.8C168.621 31.9 168.621 32.1 168.621 32.4Z" fill="#F7DA00"/>
<path d="M169.521 33.5C169.721 33.6 169.821 33.4 169.821 33.3C170.121 32.9 170.521 32.5 170.921 32.1C172.021 31.1 173.121 30.1 174.121 29C174.321 28.8 174.221 28.8 174.021 28.7C173.821 28.6 173.521 28.5 173.421 28.3C173.221 28.1 173.121 28.2 173.021 28.4C171.921 30 170.621 31.5 169.321 32.8C169.221 32.9 168.921 33 169.021 33.2C169.021 33.4 169.321 33.4 169.521 33.5Z" fill="#F7DA00"/>
<path d="M170.921 33.9C171.221 33.9 171.421 34 171.721 34C171.921 34 172.021 34 172.121 33.8C172.221 33.5 172.321 33.3 172.521 33.1C173.221 32.2 174.021 31.5 174.821 30.7C175.321 30.2 175.821 29.8 176.321 29.2C176.121 29.2 176.021 29.2 175.921 29.2C175.621 29.2 175.221 29 174.921 29.1C174.621 29.2 174.521 29.6 174.321 29.9C173.221 31.2 172.121 32.4 170.921 33.6C170.821 33.7 170.721 33.7 170.721 33.8C170.621 33.9 170.821 33.9 170.921 33.9Z" fill="#F7DA00"/>
<path d="M174.021 33.7C174.521 32.6 175.321 31.6 176.221 30.7C176.521 30.3 176.921 30 177.321 29.7C177.521 29.5 177.521 29.3 177.321 29.2C177.221 29.1 176.421 29.3 176.321 29.5C175.421 30.9 174.321 32.1 173.221 33.4C173.021 33.6 172.821 33.8 172.521 34.1C172.921 34.1 173.321 34.1 173.721 34C173.921 33.9 174.021 33.8 174.021 33.7Z" fill="#F7DA00"/>
<path d="M187.821 24.3C188.221 24 188.521 23.7 188.921 23.5C189.021 23.5 189.121 23.4 189.121 23.3C189.121 23.2 189.121 23.1 189.021 23C188.921 22.9 188.921 23 188.821 23.1C188.521 23.3 188.321 23.5 188.021 23.7C187.921 23.8 187.721 23.9 187.621 24C187.521 24.1 187.521 24.2 187.621 24.3C187.621 24.5 187.721 24.3 187.821 24.3Z" fill="#F7DA00"/>
<path d="M187.421 22.2C187.721 22 188.121 21.8 188.421 21.5C188.521 21.4 188.521 20.9 188.321 20.8H188.221C187.921 21.1 187.521 21.3 187.221 21.6L187.121 21.7C187.121 21.8 187.121 21.9 187.121 22C187.221 22.2 187.321 22.2 187.421 22.2Z" fill="#F7DA00"/>
<path d="M187.921 25.3C188.321 25 188.721 24.6 189.221 24.3C189.321 24.3 189.421 24.2 189.421 24.1C189.421 24.1 189.421 24 189.321 23.9C189.221 23.8 189.121 23.9 189.121 24C188.821 24.3 188.521 24.5 188.221 24.8C188.121 24.9 187.921 25 187.821 25.1C187.721 25.2 187.721 25.3 187.821 25.4C187.821 25.5 187.921 25.4 187.921 25.3Z" fill="#F7DA00"/>
<path d="M185.021 8.8C184.921 8.4 184.821 8 184.721 7.7C184.421 6.3 184.121 4.8 183.921 3.4C183.921 3.2 183.721 3 183.521 3C183.121 2.9 182.721 2.8 182.321 2.8C179.621 2.5 177.021 2.9 174.421 3.7C173.621 3.9 172.821 4.3 172.121 4.9C171.921 5.1 171.821 5.3 171.821 5.5C171.621 6.3 171.521 7.2 171.421 8C171.321 9 171.221 10.1 171.221 11.1C171.221 12.1 171.221 13.2 171.221 14.2C171.421 17.7 171.821 21.1 172.921 24.4C173.321 25.5 173.721 26.5 174.321 27.5C174.521 27.8 174.721 28 175.121 28C175.621 28.1 176.221 28 176.721 28C176.921 28 176.921 27.8 176.921 27.7C176.621 25.5 176.621 23.2 176.921 21C177.121 19.9 176.821 20 178.121 19.8C179.521 19.6 180.921 19.4 182.321 19C182.521 18.9 182.621 18.9 182.721 18.6C182.821 17.8 182.921 17 183.021 16.2C183.121 15.5 183.121 15.5 182.421 15.4C181.021 15.2 179.621 15 178.221 14.7C177.021 14.4 176.521 13.8 176.421 12.6C176.421 12.1 176.421 11.7 176.521 11.2C176.621 10.7 176.721 10.6 177.321 10.5C177.421 10.5 177.521 10.5 177.621 10.5C178.721 10.3 179.921 10 181.021 9.8C182.321 9.6 183.621 9.3 185.021 9.3C185.121 9.1 185.121 9 185.021 8.8Z" fill="#F7DA00"/>
<path d="M188.121 26.4C188.621 26 189.121 25.6 189.721 25.3C189.821 25.3 189.821 25.2 189.921 25.1C189.921 25 189.821 24.9 189.721 24.8C189.721 24.7 189.621 24.8 189.521 24.8C189.021 25.3 188.421 25.7 187.921 26.2C187.821 26.3 187.821 26.4 187.921 26.4C188.021 26.6 188.021 26.4 188.121 26.4Z" fill="#F7DA00"/>
<path d="M188.321 27.6C188.921 27.1 189.521 26.7 190.221 26.3C190.321 26.2 190.421 26.2 190.321 26.1C190.221 26 190.221 25.8 190.121 25.8H190.021C189.421 26.2 188.821 26.7 188.121 27.2C187.921 27.3 188.121 27.5 188.121 27.7C188.121 27.7 188.221 27.7 188.321 27.6Z" fill="#F7DA00"/>
<path d="M187.121 19.7C187.421 19.5 187.721 19.4 188.021 19.2L188.121 19.1C188.121 19 188.121 18.8 187.921 18.9C187.621 19.1 187.321 19.3 187.021 19.5C186.921 19.5 186.921 19.6 187.021 19.7C187.021 19.8 187.021 19.8 187.121 19.7Z" fill="#F7DA00"/>
<path d="M186.621 15C186.921 14.9 187.221 14.8 187.521 14.6V14.5C187.521 14.4 187.521 14.3 187.521 14.1C187.521 14 187.421 13.9 187.321 14C187.021 14.2 186.821 14.3 186.521 14.5C186.421 14.6 186.421 14.7 186.421 14.8C186.521 14.9 186.521 15 186.621 15Z" fill="#F7DA00"/>
<path d="M186.821 15.9C187.021 15.8 187.221 15.7 187.421 15.7C187.521 15.7 187.621 15.6 187.621 15.4C187.521 15.3 187.721 15 187.421 15.1C187.121 15.2 186.821 15.4 186.621 15.6C186.521 15.7 186.521 15.8 186.621 15.9C186.621 16 186.721 15.9 186.821 15.9Z" fill="#F7DA00"/>
<path d="M186.921 17.8C187.221 17.7 187.421 17.5 187.721 17.4C187.821 17.4 187.821 17.3 187.821 17.2C187.721 17.1 187.921 16.8 187.621 16.9C187.321 17 187.021 17.3 186.821 17.5C186.721 17.6 186.721 17.7 186.821 17.7C186.821 17.8 186.921 17.8 186.921 17.8Z" fill="#F7DA00"/>
<path d="M186.821 16.8C187.121 16.7 187.421 16.5 187.721 16.4C187.821 16.3 187.721 16.2 187.721 16.1C187.721 16 187.621 16 187.521 16C187.221 16.2 186.921 16.3 186.721 16.6C186.721 16.6 186.721 16.6 186.821 16.8C186.721 16.8 186.721 16.7 186.821 16.8Z" fill="#F7DA00"/>
<path d="M187.321 20.8C187.621 20.7 187.821 20.6 188.121 20.4C188.221 20.4 188.321 20.3 188.321 20.2C188.321 20.1 188.221 19.9 188.221 19.7C188.221 19.6 188.121 19.6 188.021 19.7C187.721 20 187.421 20.2 187.121 20.5C187.021 20.6 187.021 20.8 187.121 20.9C187.221 21 187.321 20.9 187.321 20.8Z" fill="#F7DA00"/>
<path d="M195.321 32.1C195.421 32 195.421 32 195.521 31.9C196.221 31.2 196.921 30.6 197.521 29.9C196.921 29.8 196.521 30 196.121 30.4C195.521 31.2 194.821 31.9 193.921 32.4C194.721 32.6 194.821 32.6 195.321 32.1Z" fill="#F7DA00"/>
<path d="M199.221 27.5C199.121 25.9 199.021 24.2 199.021 22.6C199.021 22.3 198.921 22.2 198.621 22.2C197.321 22.2 196.021 22.2 194.721 22.4C193.921 22.5 193.521 22.2 193.421 21.3C193.421 20.2 193.221 19.2 193.021 18.1C192.821 17.3 193.221 16.7 194.121 16.7C195.421 16.7 196.721 16.8 198.121 16.9C198.421 16.9 198.521 16.8 198.521 16.5C198.521 16 198.521 15.5 198.521 15C198.521 14.8 198.421 14.7 198.221 14.7C197.721 14.6 197.321 14.5 196.821 14.4C196.221 14.3 195.621 14.1 195.021 14.1C194.521 14 194.221 13.9 194.021 13.4C193.921 13.1 193.921 12.7 193.921 12.4C193.921 12 194.021 11.5 194.021 11.1C193.921 10.5 194.121 10.3 194.621 10.1C195.121 10 195.521 10.1 196.021 10.1C196.921 10.3 197.821 10.4 198.721 10.6C198.921 10.6 199.021 10.5 199.021 10.3C199.021 9.90001 199.021 9.60001 199.121 9.20001C199.221 8.30001 199.221 7.40001 199.221 6.50001C199.221 6.00001 199.121 5.50001 198.521 5.40001C198.421 5.40001 198.221 5.30001 198.121 5.20001C196.821 4.60001 195.421 4.40001 194.021 4.20001C193.421 4.10001 192.821 4.10001 192.221 4.10001C191.221 4.10001 190.221 4.10001 189.221 4.10001C189.021 4.10001 188.921 4.20001 188.921 4.40001C188.921 5.70001 188.821 7.10001 188.821 8.40001C188.721 10.8 188.921 13.2 189.121 15.5C189.521 19.1 190.421 22.7 191.421 26.2C191.521 26.6 191.721 26.9 192.121 27C193.021 27.3 193.921 27.6 194.921 27.7C196.221 27.8 197.521 27.7 198.821 27.5C199.121 27.8 199.221 27.7 199.221 27.5Z" fill="#F7DA00"/>
<path d="M193.221 32.4C193.321 32.4 193.421 32.4 193.521 32.3C194.121 31.4 194.921 30.8 195.721 30.1C195.821 30 195.921 30 195.921 29.8C195.421 29.6 195.021 29.7 194.621 30.1C193.921 30.9 193.221 31.6 192.321 32.3C192.621 32.4 192.921 32.4 193.221 32.4Z" fill="#F7DA00"/>
<path d="M179.721 11.3C179.121 11.3 179.021 11.3 178.821 11.9C178.721 12.2 178.621 12.5 178.421 12.8C178.321 13 178.421 13.1 178.521 13.1C178.721 13.1 178.821 13.1 178.921 13C179.221 12.5 179.521 12 179.821 11.6C179.921 11.3 179.921 11.3 179.721 11.3Z" fill="#F7DA00"/>
<path d="M188.521 28.9C189.121 28.3 189.921 27.8 190.621 27.3C190.721 27.3 190.721 27.2 190.821 27.1C190.821 27 190.721 26.9 190.621 26.8C190.521 26.7 190.421 26.8 190.321 26.9C189.721 27.4 189.121 27.9 188.421 28.3C188.121 28.5 188.221 28.7 188.221 28.9C188.321 29 188.421 29 188.521 28.9Z" fill="#F7DA00"/>
<path d="M179.321 13C179.521 13 179.721 13.1 179.821 12.9C180.021 12.3 180.421 11.8 180.721 11.2C180.521 11.3 180.321 11.2 180.221 11.4C179.921 11.9 179.621 12.4 179.321 12.9C179.321 12.9 179.221 13 179.321 13Z" fill="#F7DA00"/>
<path d="M189.021 31.6C189.921 30.6 190.921 29.7 192.021 28.9C192.121 28.8 192.121 28.7 192.021 28.6C191.921 28.5 191.821 28.4 191.621 28.5C190.721 29.2 189.921 30 189.021 30.6C188.921 30.7 188.921 30.8 188.921 30.9C188.821 31.1 188.921 31.3 189.021 31.6Z" fill="#F7DA00"/>
<path d="M191.421 32.3C191.721 32.4 191.921 32.3 192.021 32C192.221 31.7 192.521 31.4 192.821 31.1C193.321 30.7 193.821 30.2 194.321 29.8C194.421 29.7 194.521 29.7 194.421 29.6C194.321 29.5 193.721 29.4 193.621 29.5C192.721 30.4 191.921 31.3 190.921 32.2C191.021 32.2 191.221 32.2 191.421 32.3Z" fill="#F7DA00"/>
<path d="M188.621 30C188.621 30.2 188.721 30.2 188.821 30.1C189.521 29.3 190.421 28.7 191.221 28.1C191.321 28.1 191.321 28 191.321 27.9C191.221 27.7 191.221 27.6 191.021 27.5C190.921 27.4 190.821 27.6 190.721 27.6C190.021 28.1 189.321 28.8 188.521 29.2C188.421 29.3 188.321 29.4 188.421 29.5C188.521 29.8 188.521 29.9 188.621 30Z" fill="#F7DA00"/>
<path d="M190.021 32.1C190.221 32.1 190.321 32.1 190.421 31.9C191.221 31 192.121 30.2 193.021 29.4C193.121 29.3 193.221 29.3 193.221 29.1C193.221 29 193.021 28.9 192.921 28.9C192.821 28.8 192.721 29 192.621 29C191.521 30 190.521 31 189.221 31.9C189.421 32 189.721 32 190.021 32.1Z" fill="#F7DA00"/>
<path d="M219.921 26.7C219.721 27.2 219.521 27.7 219.321 28.1C217.821 30.9 215.521 32.3 212.321 32.5C210.821 32.6 209.321 32.5 207.921 32C205.621 31.2 203.921 29.7 202.621 27.6C202.021 26.6 201.521 25.6 201.121 24.5C201.121 24.4 201.021 24.3 200.921 24.2C200.921 24.7 200.921 25.2 201.021 25.7C201.021 26.5 201.121 27.3 201.121 28.1C201.121 28.7 200.821 29 200.321 29.2C200.121 29.3 199.921 29.3 199.721 29.4C199.321 29.4 199.221 29.7 199.221 30C199.221 31.1 199.021 32.2 198.621 33.3C198.521 33.6 198.421 33.7 198.121 33.6C196.221 33.3 194.221 33.4 192.321 33.5C191.421 33.5 190.521 33.2 189.621 33C189.321 32.9 189.121 33 188.921 32.9C188.321 32.7 187.821 32.4 187.621 31.7C187.321 30.8 186.921 29.9 186.721 29C186.121 26.8 185.821 24.5 185.621 22.2C185.321 19.2 185.221 16.2 185.221 13.2C185.221 12.4 185.221 11.5 185.121 10.7C185.121 10.5 185.021 10.4 184.821 10.4C184.221 10.5 183.621 10.5 183.021 10.6C182.821 10.6 182.721 10.7 182.721 10.9C182.821 11.6 183.021 12.2 183.021 12.9C183.021 13.1 183.221 13.1 183.321 13.1C183.621 13.2 184.021 13.2 184.321 13.4C184.821 13.6 185.021 14 185.021 14.5C184.921 16.1 184.621 17.7 184.421 19.3C184.321 20 183.821 20.3 183.221 20.4C182.821 20.5 182.821 20.5 182.921 20.9C183.221 21.9 183.321 22.9 183.421 23.9C183.421 24.3 183.221 24.6 182.821 24.8C181.321 25.3 179.821 25.6 178.221 25.5C177.921 25.5 177.921 25.6 177.821 25.8C177.821 26.2 177.721 26.7 177.721 27.1C177.721 27.2 177.721 27.3 177.721 27.4C178.221 28.9 178.321 30.5 178.621 32.1C178.721 32.7 178.521 32.9 178.121 33.2C177.521 33.6 177.021 33.8 176.321 33.9C175.921 34 175.421 34.1 175.021 34.3C174.321 34.7 173.621 34.7 172.921 34.7C171.821 34.7 170.821 34.5 169.721 34.1C169.421 34 169.221 34 169.021 33.7C168.821 33.4 168.421 33.3 168.021 33.2C167.921 33.2 167.921 33.1 167.921 33.1C167.921 32.9 167.821 32.7 167.721 32.6C166.821 30.9 166.421 29.1 166.021 27.3C165.521 24.8 165.321 22.2 165.221 19.7C165.221 19.6 165.221 19.5 165.221 19.4C164.921 19.1 165.121 18.9 165.221 18.6C165.321 18.3 165.221 17.9 165.221 17.6C165.221 16.6 165.221 15.6 165.321 14.6C165.321 14.5 165.321 14.4 165.321 14.4C165.021 14.2 165.221 14 165.321 13.9C165.421 13.7 165.421 13.6 165.421 13.4C165.521 11.8 165.821 10.2 166.221 8.7C166.321 8.2 166.521 7.9 167.021 7.8C167.921 7.6 168.821 7.3 169.621 7.1C169.821 7 169.921 6.9 170.021 6.7C170.121 6.3 170.121 6 170.321 5.6C170.621 4.9 171.021 4.2 171.421 3.6C171.521 3.4 171.621 3.3 171.921 3.3C172.021 3.3 172.121 3.2 172.121 3.1C172.621 2.6 173.221 2.3 173.921 2C175.321 1.4 176.821 0.9 178.321 0.7C179.121 0.6 179.921 0.6 180.721 0.7C181.921 0.8 183.121 0.8 184.421 1C184.821 1 185.021 1.2 185.221 1.6C185.521 2.4 185.521 3.2 185.621 4C185.721 4.7 185.721 5.4 185.821 6.1C185.921 6.9 186.021 7.7 185.921 8.4C185.921 8.6 186.021 8.7 186.221 8.7C186.521 8.7 186.821 8.8 187.221 8.9C187.421 8.9 187.421 8.9 187.521 8.7C187.521 8.3 187.521 8 187.621 7.6C187.721 6.3 187.921 4.9 188.321 3.6C188.321 3.5 188.321 3.4 188.321 3.3C188.321 3.1 188.521 2.9 188.721 2.8C189.421 2.7 190.021 2.6 190.721 2.5C193.121 2.1 195.521 2.3 197.821 3C198.821 3.3 199.721 3.9 200.121 4.9C200.421 5.6 200.621 6.4 200.721 7.3C200.821 8.3 200.821 9.4 200.621 10.4V10.5C200.521 11.3 200.221 11.5 199.421 11.5C199.021 11.5 198.521 11.5 198.121 11.5C197.221 11.5 196.321 11.5 195.421 11.3C195.121 11.3 195.121 11.3 195.121 11.6C195.321 12.5 195.321 12.5 196.221 12.5C197.221 12.5 198.221 12.6 199.121 12.8C199.721 12.9 200.021 13.2 200.021 13.8C200.121 14.9 200.221 16 200.021 17.1C199.921 17.7 199.621 18.1 199.021 18.2C198.521 18.3 197.921 18.3 197.421 18.3C196.621 18.3 195.921 18.2 195.121 18.2C194.721 18.2 194.721 18.2 194.821 18.6C194.921 19 194.921 19.3 194.921 19.7C194.921 20 195.021 20 195.321 20C196.621 19.8 197.921 19.9 199.221 19.9C199.521 19.9 199.821 19.9 200.021 20C200.221 20 200.321 20 200.321 19.8C200.221 18.5 200.321 17.2 200.521 15.9C200.921 13.6 201.621 11.3 203.021 9.4C203.521 8.7 204.221 8.1 204.721 7.4C205.121 6.8 205.521 6.2 206.021 5.7C207.221 4.4 208.821 3.8 210.621 3.8C210.821 3.8 211.021 3.8 211.221 3.7C213.321 2.9 215.321 3.2 217.321 4.2C217.921 4.5 218.421 4.9 218.921 5.3C220.121 6.2 221.021 7.5 221.921 8.7C221.921 8.8 222.021 8.8 222.021 8.8C222.121 8.8 222.121 8.7 222.121 8.6C222.421 8 222.721 7.4 223.221 7C223.821 6.6 224.121 5.9 224.421 5.3C225.221 3.9 226.621 3.2 228.121 2.7C229.721 2.2 231.321 2.1 233.021 2.2C233.521 2.2 234.021 2.2 234.621 2.3C236.521 2.5 238.121 3.3 239.721 4.3C240.421 4.7 240.621 5.4 240.621 6.2C240.721 7.9 240.621 9.7 240.421 11.4C240.421 11.7 240.321 12.1 240.421 12.4C240.521 12.6 240.321 12.8 240.221 12.9C239.921 13.1 239.621 13.2 239.321 13C238.921 12.7 238.621 12.5 238.321 12.1C238.221 12 238.121 11.8 238.021 11.7C237.921 12.1 237.721 12.4 237.621 12.7C237.621 12.8 237.621 12.9 237.721 12.9C239.821 14.2 240.621 16.3 240.821 18.6C241.221 21.7 240.321 24.4 238.221 26.7C237.321 27.7 236.221 28.4 234.921 28.8C234.221 29 233.821 29.5 233.421 30.1C233.221 30.4 233.021 30.7 232.621 30.9C232.021 31.2 231.421 31.6 230.821 31.9C228.721 32.8 226.621 32.5 224.621 31.5C222.421 30.4 220.821 28.8 219.721 26.6C220.021 26.9 220.021 26.8 219.921 26.7ZM222.821 18.7C222.921 18.1 222.921 17.5 222.821 16.9C222.421 13.4 221.021 10.4 218.521 7.9C217.021 6.3 215.121 5.3 212.821 5.4C211.121 5.5 209.621 5.9 208.221 6.9C205.321 9.1 203.821 12.1 203.921 15.8C204.021 18.2 204.821 20.3 206.521 22C209.621 25 213.321 25.9 217.421 24.8C220.621 24 222.521 21.8 222.821 18.7ZM239.021 8.4C239.121 8.4 239.121 8.4 239.021 8.4C239.021 8.2 239.121 8 239.121 7.8C239.221 6.7 239.121 6.5 238.121 6C235.721 4.7 233.121 4.4 230.421 4.7C229.521 4.8 228.621 5 227.821 5.4C226.321 6.1 225.521 7.4 225.221 9.1C225.021 10.1 225.121 11 225.321 11.9C225.421 12.6 225.621 13.4 226.021 14C226.621 14.8 227.221 15.6 228.021 16.3C228.921 17 229.821 17.6 230.821 18.3C231.621 18.8 232.421 19.3 232.921 20.1C233.521 21.1 233.821 22.1 233.321 23.2C232.821 24.2 231.921 24.7 230.821 24.8C229.621 24.9 228.521 24.4 227.521 23.8C226.821 23.3 226.221 22.7 225.921 21.8C225.921 21.6 225.721 21.6 225.621 21.4C225.521 21.2 225.321 21.2 225.221 21.4C224.621 22 224.221 22.8 223.621 23.5C223.521 23.6 223.621 23.7 223.721 23.8C223.921 24 224.121 24.2 224.321 24.4C226.421 26.4 228.821 27.8 231.721 27.9C233.721 28 235.521 27.3 236.921 25.9C238.621 24.2 239.221 22.1 239.121 19.8C239.021 18.2 238.621 16.7 237.621 15.5C237.521 15.4 237.421 15.2 237.221 15.2C236.121 14.4 235.021 13.7 234.021 12.8C233.121 12.1 233.121 11.1 233.921 10.3C235.021 9.2 237.021 8.6 238.521 9.8C238.721 10 238.821 9.9 238.921 9.7C239.021 9.1 239.021 8.8 239.021 8.4ZM171.521 7.9C171.421 8.9 171.321 10 171.321 11C171.321 12 171.321 13.1 171.321 14.1C171.521 17.6 171.921 21 173.021 24.3C173.421 25.4 173.821 26.4 174.421 27.4C174.621 27.7 174.821 27.9 175.221 27.9C175.721 28 176.321 27.9 176.821 27.9C177.021 27.9 177.021 27.7 177.021 27.6C176.721 25.4 176.721 23.1 177.021 20.9C177.221 19.8 176.921 19.9 178.221 19.7C179.621 19.5 181.021 19.3 182.421 18.9C182.621 18.8 182.721 18.8 182.821 18.5C182.921 17.7 183.021 16.9 183.121 16.1C183.221 15.4 183.221 15.4 182.521 15.3C181.121 15.1 179.721 14.9 178.321 14.6C177.121 14.3 176.621 13.7 176.521 12.5C176.521 12 176.521 11.6 176.621 11.1C176.721 10.6 176.821 10.5 177.421 10.4C177.521 10.4 177.621 10.4 177.721 10.4C178.821 10.2 180.021 9.9 181.121 9.7C182.421 9.5 183.721 9.2 185.121 9.2C185.321 9.2 185.321 9.1 185.321 8.9C185.221 8.5 185.121 8.1 185.021 7.8C184.721 6.4 184.421 4.9 184.221 3.5C184.221 3.3 184.021 3.1 183.821 3.1C183.421 3 183.021 2.9 182.621 2.9C179.921 2.6 177.321 3 174.721 3.8C173.921 4 173.121 4.4 172.421 5C172.221 5.2 172.121 5.4 172.121 5.6C171.621 6.2 171.621 7 171.521 7.9ZM193.921 4.4C193.321 4.3 192.721 4.3 192.121 4.3C191.121 4.3 190.121 4.3 189.121 4.3C188.921 4.3 188.821 4.4 188.821 4.6C188.821 5.9 188.721 7.3 188.721 8.6C188.621 11 188.821 13.4 189.021 15.7C189.421 19.3 190.321 22.9 191.321 26.4C191.421 26.8 191.621 27.1 192.021 27.2C192.921 27.5 193.821 27.8 194.821 27.9C196.121 28 197.421 27.9 198.721 27.7C198.921 27.7 199.021 27.5 199.021 27.4C198.921 25.8 198.821 24.1 198.821 22.5C198.821 22.2 198.721 22.1 198.421 22.1C197.121 22.1 195.821 22.1 194.521 22.3C193.721 22.4 193.321 22.1 193.221 21.2C193.221 20.1 193.021 19.1 192.821 18C192.621 17.2 193.021 16.6 193.921 16.6C195.221 16.6 196.521 16.7 197.921 16.8C198.221 16.8 198.321 16.7 198.321 16.4C198.321 15.9 198.321 15.4 198.321 14.9C198.321 14.7 198.221 14.6 198.021 14.6C197.521 14.5 197.121 14.4 196.621 14.3C196.021 14.2 195.421 14 194.821 14C194.321 13.9 194.021 13.8 193.821 13.3C193.721 13 193.721 12.6 193.721 12.3C193.721 11.9 193.821 11.4 193.821 11C193.721 10.4 193.921 10.2 194.421 10C194.921 9.9 195.321 10 195.821 10C196.721 10.2 197.621 10.3 198.521 10.5C198.721 10.5 198.821 10.4 198.821 10.2C198.821 9.8 198.821 9.5 198.921 9.1C199.021 8.2 199.021 7.3 199.021 6.4C199.021 5.9 198.921 5.4 198.321 5.3C198.221 5.3 198.021 5.2 197.921 5.1C196.721 4.8 195.321 4.6 193.921 4.4ZM176.221 29.2C176.021 29.2 175.921 29.2 175.821 29.2C175.521 29.2 175.121 29 174.821 29.1C174.521 29.2 174.421 29.6 174.221 29.9C173.121 31.2 172.021 32.4 170.821 33.6C170.721 33.7 170.621 33.7 170.621 33.8C170.621 33.9 170.821 33.9 170.921 33.9C171.221 33.9 171.421 34 171.721 34C171.921 34 172.021 34 172.121 33.8C172.221 33.5 172.321 33.3 172.521 33.1C173.221 32.2 174.021 31.5 174.821 30.7C175.221 30.2 175.721 29.8 176.221 29.2ZM169.521 33.5C169.721 33.6 169.721 33.4 169.821 33.3C170.121 32.9 170.521 32.5 170.921 32.1C172.021 31.1 173.121 30.1 174.121 29C174.321 28.8 174.221 28.8 174.021 28.7C173.821 28.6 173.521 28.5 173.421 28.3C173.221 28.1 173.121 28.2 173.021 28.4C171.921 30 170.621 31.5 169.321 32.8C169.221 32.9 168.921 33 169.021 33.2C169.021 33.4 169.321 33.4 169.521 33.5ZM172.521 34C172.921 34 173.321 34 173.721 33.9C173.821 33.9 173.921 33.8 174.021 33.7C174.521 32.6 175.321 31.6 176.221 30.7C176.521 30.3 176.921 30 177.321 29.7C177.521 29.5 177.521 29.3 177.321 29.2C177.221 29.1 176.421 29.3 176.321 29.5C175.421 30.9 174.321 32.1 173.221 33.4C173.021 33.5 172.721 33.7 172.521 34ZM168.421 30.5C168.421 30.4 168.421 30.4 168.421 30.5C169.321 29.2 170.421 28.2 171.521 27.2C172.121 26.7 172.121 26.7 171.721 26C171.721 26 171.721 26 171.721 25.9C171.621 25.6 171.521 25.7 171.321 25.9C170.421 27 169.521 28.1 168.621 29.2C168.221 29.6 168.221 30 168.421 30.5ZM168.621 32.4C169.221 31.5 169.921 30.7 170.621 30C171.321 29.3 172.121 28.6 172.921 28C173.021 28 173.021 27.9 173.021 27.9C173.021 27.6 172.721 27.5 172.521 27.3C172.321 27.2 172.321 27.4 172.221 27.5C171.021 28.8 169.921 30.2 168.621 31.5C168.521 31.6 168.521 31.7 168.521 31.8C168.521 31.9 168.621 32.1 168.621 32.4ZM168.121 28.5C169.021 27.5 169.821 26.6 170.721 25.8C171.221 25.4 171.321 25 171.021 24.5C170.921 24.4 171.021 24.2 170.921 24.2C170.821 24.2 170.721 24.3 170.621 24.4C169.821 25.3 169.121 26.3 168.321 27.2C167.921 27.6 167.921 27.9 168.121 28.5ZM206.621 24.7C206.521 24.7 206.421 24.8 206.421 24.9C206.021 25.7 205.621 26.5 205.221 27.3C204.821 28.2 204.721 28.2 205.521 28.8C205.721 29 205.821 28.9 205.921 28.7C206.421 27.6 207.121 26.6 207.721 25.6C207.821 25.4 207.821 25.3 207.621 25.2C207.421 25.1 207.321 25.2 207.321 25.3C207.021 25.9 206.821 26.5 206.521 27.1C206.321 27.5 206.221 27.8 206.021 28.2C206.021 28.3 205.921 28.4 205.821 28.3C205.721 28.3 205.721 28.2 205.721 28.1C205.721 27.9 205.721 27.7 205.721 27.4C205.921 26.6 206.421 25.8 206.821 25.1C207.021 25.1 206.921 24.8 206.621 24.7ZM227.821 31.5C227.821 31.2 227.821 30.9 227.921 30.7C228.121 30.2 228.321 29.8 228.621 29.3C228.621 29.2 228.821 29.1 228.621 29C228.521 28.9 228.421 29.1 228.421 29.2C228.121 29.8 227.921 30.3 227.621 30.9C227.521 31.1 227.421 31.3 227.221 31.4C227.021 31.6 226.921 31.5 226.821 31.2C226.821 31.1 226.821 31 226.821 30.9C226.921 30.5 227.121 30.1 227.321 29.7C227.421 29.4 227.621 29.1 227.821 28.9C227.821 28.8 227.921 28.7 227.821 28.7C227.721 28.7 227.721 28.7 227.621 28.8C227.621 28.9 227.521 28.9 227.521 29C227.121 29.7 226.821 30.5 226.421 31.2C226.321 31.4 226.421 31.4 226.521 31.5C227.121 31.7 227.821 31.8 228.521 31.9C228.721 31.9 228.821 31.8 228.821 31.7C229.021 31 229.321 30.5 229.721 29.9C229.921 29.5 229.921 29.5 229.521 29.4C229.321 29.4 229.221 29.4 229.221 29.6C229.121 29.9 228.921 30.2 228.821 30.5C228.521 30.7 228.221 31.1 227.821 31.5ZM170.121 21.2C170.021 21.2 170.021 21.2 170.021 21.3C169.221 22.2 168.421 23.1 167.521 23.9C167.421 24 167.421 24 167.421 24.1C167.521 24.5 167.521 24.9 167.621 25.4C167.721 25.2 167.821 25.1 167.921 25C168.621 24.1 169.321 23.3 170.121 22.5C170.221 22.4 170.421 22.3 170.321 22C170.221 21.7 170.221 21.4 170.121 21.2ZM209.821 31.3C210.121 31.4 210.221 31.3 210.221 31C210.221 30.9 210.221 30.9 210.221 30.8C210.621 29.6 211.121 28.4 211.721 27.3C211.721 27.2 211.821 27.1 211.821 27C211.621 26.8 211.121 26.9 211.021 27.1C210.521 28.4 210.021 29.6 209.421 30.8C209.321 31 209.421 31 209.521 31.1C209.621 31.2 209.721 31.2 209.821 31.3ZM212.821 27.2C212.721 27.2 212.521 27.1 212.321 27.4C211.821 28.7 211.321 29.9 210.721 31.2C210.721 31.3 210.621 31.3 210.721 31.4C210.921 31.5 211.321 31.4 211.421 31.2C211.621 30.6 211.921 30 212.221 29.5C212.521 28.9 212.821 28.3 213.121 27.7C213.321 27.2 213.321 27.2 212.821 27.2ZM208.921 31C209.021 31 209.121 31 209.121 30.9C209.421 29.6 210.021 28.4 210.521 27.1C210.621 27 210.721 26.8 210.521 26.7C210.321 26.6 210.221 26.6 210.121 26.9C209.721 28 209.121 29.1 208.521 30.1C208.021 30.7 208.021 30.7 208.921 31C208.821 31 208.821 31 208.921 31ZM206.721 29.9C206.921 29.9 206.921 29.8 206.921 29.8C207.321 28.6 208.021 27.4 208.721 26.3C208.821 26.1 208.821 26 208.621 25.9C208.421 25.8 208.221 25.8 208.121 26.1C207.521 27.1 207.021 28.2 206.321 29.2C206.221 29.3 206.121 29.4 206.221 29.6C206.421 29.7 206.621 29.8 206.721 29.9ZM179.121 24.8C179.421 24.7 179.621 24.7 179.821 24.6C179.921 24.6 180.021 24.5 180.121 24.4C180.521 23.4 181.021 22.4 181.521 21.4C181.521 21.3 181.621 21.2 181.621 21.1C181.121 21.1 180.821 21.3 180.621 21.8C180.421 22.4 180.121 22.9 179.821 23.5C179.521 23.9 179.321 24.3 179.121 24.8ZM189.121 32C189.521 32 189.721 32.1 190.021 32.1C190.221 32.1 190.321 32.1 190.421 31.9C191.221 31 192.121 30.2 193.021 29.4C193.121 29.3 193.221 29.3 193.221 29.1C193.221 29 193.021 28.9 192.921 28.9C192.821 28.8 192.721 29 192.621 29C191.421 30 190.421 31.1 189.121 32ZM169.621 17.6C169.521 17.7 169.421 17.8 169.421 17.8C168.721 18.5 168.121 19.3 167.421 20C167.121 20.3 167.121 20.7 167.221 21.1H167.321C168.021 20.3 168.821 19.6 169.721 19C169.821 18.9 169.821 18.8 169.821 18.7C169.721 18.3 169.721 18 169.621 17.6ZM192.221 32.3C192.621 32.3 192.921 32.4 193.221 32.4C193.321 32.4 193.421 32.4 193.521 32.3C194.121 31.4 194.921 30.8 195.721 30.1C195.821 30 195.921 30 195.921 29.8C195.421 29.6 195.021 29.7 194.621 30.1C193.921 30.9 193.221 31.7 192.221 32.3ZM190.921 32.2C191.121 32.2 191.221 32.2 191.421 32.3C191.721 32.4 191.921 32.3 192.021 32C192.221 31.7 192.521 31.4 192.821 31.1C193.321 30.7 193.821 30.2 194.321 29.8C194.421 29.7 194.521 29.7 194.421 29.6C194.321 29.5 193.721 29.4 193.621 29.5C192.721 30.4 191.821 31.3 190.921 32.2ZM214.421 27.3C213.921 27.1 213.721 27.2 213.521 27.7C213.521 27.8 213.421 27.9 213.421 28C212.921 29.1 212.421 30.1 211.921 31.2C211.821 31.4 211.821 31.4 212.021 31.4C212.321 31.4 212.421 31.3 212.621 31C213.121 29.8 213.721 28.5 214.421 27.3ZM224.321 30.4C224.521 30.4 224.521 30.3 224.521 30.2C224.621 29.9 224.721 29.5 224.921 29.2C225.221 28.7 225.421 28.1 225.721 27.6C225.921 27.3 225.621 27.2 225.521 27.1C225.321 27 225.321 27.2 225.221 27.3C224.721 28.1 224.321 29 223.721 29.7C223.721 29.8 223.621 29.8 223.721 29.9C223.821 30.1 224.021 30.2 224.321 30.4ZM224.921 26.7C224.821 26.5 224.721 26.4 224.621 26.3C224.521 26.2 224.421 26.3 224.321 26.4C223.721 27.2 223.321 28.1 222.721 28.9C222.721 29 222.621 29 222.621 29.1C222.621 29.2 223.221 29.7 223.321 29.7C223.521 29.6 223.421 29.4 223.521 29.2C223.521 29.2 223.521 29.1 223.621 29C223.921 28.3 224.321 27.6 224.721 27C224.721 26.9 224.821 26.8 224.921 26.7ZM178.121 24.6C178.121 24.7 178.021 24.9 178.221 24.9C178.421 25 178.721 24.8 178.821 24.6C179.121 23.6 179.621 22.7 180.021 21.8C180.121 21.7 180.221 21.5 180.121 21.4C180.021 21.3 179.721 21.4 179.621 21.5C179.521 21.5 179.421 21.7 179.421 21.8C179.021 22.6 178.721 23.4 178.321 24.2C178.221 24.3 178.121 24.4 178.121 24.6ZM167.321 22.9C168.121 22.1 168.821 21.4 169.621 20.7C170.021 20.3 170.121 20 169.821 19.5C169.021 20.3 168.321 21.2 167.521 22C167.221 22.3 167.221 22.5 167.321 22.9ZM193.921 32.5C194.721 32.6 194.821 32.6 195.321 32.1C195.421 32 195.421 32 195.521 31.9C196.221 31.2 196.921 30.6 197.521 29.9C196.921 29.8 196.521 30 196.121 30.4C195.421 31.2 194.821 31.9 193.921 32.5ZM224.821 18.5C224.821 18.8 224.721 19.1 224.721 19.3C224.721 19.5 224.821 19.5 224.921 19.5C225.021 19.5 225.121 19.4 225.121 19.3C225.321 18.9 225.621 18.5 225.821 18.1C226.221 17.4 226.221 17.4 225.721 16.8C225.621 16.7 225.521 16.7 225.521 16.8C225.221 17.3 224.721 17.8 224.821 18.5ZM188.921 31.6C189.821 30.6 190.821 29.7 191.921 28.9C192.021 28.8 192.021 28.7 191.921 28.6C191.821 28.5 191.721 28.4 191.521 28.5C190.621 29.2 189.821 30 188.921 30.6C188.821 30.7 188.821 30.8 188.821 30.9C188.821 31.1 188.921 31.3 188.921 31.6ZM191.321 27.9C191.221 27.7 191.221 27.6 191.021 27.5C190.921 27.4 190.821 27.6 190.721 27.6C190.021 28.1 189.321 28.8 188.521 29.2C188.421 29.3 188.321 29.4 188.421 29.5C188.421 29.6 188.521 29.8 188.521 29.9C188.521 30.1 188.621 30.1 188.721 30C189.421 29.2 190.321 28.6 191.121 28C191.321 28.1 191.321 28 191.321 27.9ZM226.221 27.7C226.121 27.7 226.121 27.8 226.021 27.9C225.721 28.6 225.321 29.4 224.921 30C224.521 30.6 224.521 30.5 225.121 30.8C225.321 30.9 225.421 30.8 225.421 30.6C225.421 30.2 225.621 29.9 225.721 29.5C225.921 29 226.221 28.6 226.521 28.1C226.721 28 226.521 27.7 226.221 27.7ZM169.521 11.8C168.721 12.5 168.121 13.1 167.321 13.6C166.921 13.9 166.821 14.2 166.921 14.6C166.921 14.6 167.021 14.6 167.021 14.5C167.721 13.9 168.521 13.3 169.321 12.8C169.421 12.7 169.521 12.6 169.521 12.5C169.521 12.3 169.521 12.1 169.521 11.8ZM203.921 27C204.121 26.6 204.221 26.2 204.421 25.8C204.721 25.2 205.121 24.6 205.421 24C205.621 23.7 205.421 23.6 205.221 23.5C205.021 23.3 205.021 23.6 204.921 23.7C204.421 24.5 204.021 25.4 203.521 26.2C203.421 26.3 203.421 26.4 203.521 26.5C203.621 26.6 203.721 26.8 203.921 27ZM223.621 25.3C223.521 25.3 223.521 25.3 223.621 25.3C223.021 26.4 222.621 27.4 221.921 28.2C221.821 28.3 221.821 28.4 221.921 28.4C222.021 28.5 222.121 28.6 222.221 28.8C222.321 28.9 222.421 28.9 222.421 28.7C222.521 27.8 223.121 27 223.621 26.3C224.121 25.8 224.121 25.8 223.621 25.3ZM167.021 12.8C167.421 12.6 167.721 12.3 168.021 12.1C168.421 11.9 168.721 11.6 169.121 11.4C169.621 11.1 169.721 10.8 169.621 10.2C168.821 10.8 168.121 11.4 167.321 12C166.921 12.2 166.821 12.5 167.021 12.8ZM209.721 26.5C209.721 26.3 209.621 26.3 209.521 26.3C209.321 26.2 209.321 26.4 209.221 26.5C208.621 27.7 208.021 28.9 207.321 30C207.221 30.2 207.321 30.2 207.421 30.3C207.621 30.4 207.721 30.4 207.721 30.2C208.321 29 208.921 27.8 209.621 26.6C209.721 26.7 209.721 26.6 209.721 26.5ZM215.521 30.6C215.721 30.5 215.921 30.3 216.121 30.2C216.321 30.1 216.521 29.9 216.521 29.6C216.621 29 216.821 28.4 217.221 27.9C217.421 27.6 217.521 27.3 217.721 27C217.721 26.9 217.821 26.8 217.721 26.8C217.521 26.8 217.221 26.8 217.121 27.1C216.621 28.3 216.121 29.5 215.521 30.6ZM204.621 28C204.821 27.2 205.121 26.5 205.521 25.8C205.721 25.4 205.921 25 206.121 24.7C206.321 24.4 206.021 24.3 205.921 24.2C205.721 24.1 205.721 24.3 205.721 24.4C205.321 25.3 204.921 26.2 204.521 27.1C204.121 27.5 204.121 27.5 204.621 28ZM221.721 28.1C221.921 27 222.521 26.1 223.021 25.2C223.121 25.1 223.121 25 223.221 24.9C223.321 24.7 223.221 24.6 223.121 24.5C223.021 24.4 222.921 24.6 222.921 24.7C222.421 25.6 221.921 26.5 221.321 27.3C221.221 27.4 221.221 27.5 221.321 27.6C221.421 27.8 221.521 28 221.721 28.1ZM229.421 31.8C229.621 31.8 229.821 31.8 230.021 31.7C230.121 31.7 230.121 31.6 230.221 31.6C230.321 30.9 230.721 30.4 231.021 29.8C231.021 29.7 231.121 29.7 231.121 29.6C231.021 29.4 230.421 29.5 230.321 29.7C230.021 30.3 229.721 31 229.321 31.6C229.121 31.8 229.121 31.8 229.421 31.8ZM174.621 33.7C174.921 33.7 175.221 33.7 175.321 33.5C176.021 32.6 176.821 31.7 177.621 30.9C177.821 30.7 177.721 30.5 177.521 30.4C177.421 30.3 177.321 30.5 177.221 30.6C176.521 31.5 175.821 32.3 175.121 33.2C174.921 33.3 174.821 33.5 174.621 33.7ZM169.521 16.3C168.721 17.1 168.021 17.8 167.221 18.5C167.021 18.7 167.021 18.8 167.021 19.1C167.021 19.2 167.021 19.3 167.121 19.3C167.221 19.3 167.221 19.2 167.321 19.2C167.921 18.5 168.621 17.9 169.321 17.3C169.621 17 169.621 16.7 169.521 16.3ZM213.221 31.3C213.621 31.3 213.821 31.2 213.921 30.8C213.921 30.7 214.021 30.6 214.021 30.5C214.421 29.5 214.921 28.5 215.321 27.5C215.321 27.4 215.521 27.2 215.321 27.2C215.121 27.2 214.921 27.1 214.821 27.4C214.521 28.6 214.021 29.6 213.521 30.7C213.321 30.9 213.221 31.1 213.221 31.3ZM203.221 25.8C203.421 25.2 203.821 24.6 204.121 24.1C204.321 23.8 204.521 23.5 204.721 23.2C204.821 23 204.721 22.9 204.621 22.8C204.421 22.7 204.421 22.9 204.321 23C203.921 23.6 203.521 24.1 203.221 24.7C202.821 25.2 202.821 25.3 203.221 25.8ZM175.921 33.4C176.321 33.4 176.721 33.4 177.021 33C177.121 32.8 177.321 32.7 177.521 32.5C178.021 32.1 178.021 31.9 177.721 31.2C177.121 32 176.521 32.7 175.921 33.4ZM216.521 27.1C216.221 27.2 215.921 27.1 215.821 27.4C215.421 28.6 214.921 29.6 214.421 30.7C214.421 30.8 214.221 30.9 214.321 31C214.421 31.1 214.621 31 214.721 30.9C214.821 30.8 214.821 30.7 214.821 30.7C215.021 29.9 215.421 29.2 215.721 28.5C216.121 28 216.321 27.6 216.521 27.1ZM226.221 19.7C226.321 19.7 226.321 19.6 226.421 19.6C226.621 19.2 226.921 18.8 227.121 18.5C227.221 18.3 227.221 18.2 227.021 18.1C226.921 18 226.821 18 226.821 17.9C226.721 17.8 226.621 17.8 226.521 17.9C226.221 18.3 226.021 18.7 225.721 19.1C225.621 19.2 225.621 19.3 225.721 19.4C225.921 19.5 226.121 19.5 226.221 19.7ZM169.521 14.7C169.021 15.2 168.521 15.7 168.121 16.1C167.821 16.4 167.521 16.7 167.121 17C167.021 17.1 166.921 17.3 167.021 17.4C167.121 17.5 167.221 17.4 167.321 17.3C168.021 16.8 168.621 16.2 169.421 15.8C169.521 15.7 169.621 15.6 169.621 15.5C169.521 15.2 169.521 15 169.521 14.7ZM230.721 31.6C231.021 31.5 231.221 31.5 231.421 31.4C231.921 31.3 232.321 30.9 232.721 30.6C232.821 30.5 232.821 30.5 232.821 30.4C232.721 30.2 232.821 30 232.921 29.8C232.921 29.7 233.021 29.6 232.921 29.6C232.821 29.6 232.721 29.6 232.721 29.7C232.621 29.8 232.621 29.9 232.521 30C232.321 30.4 232.221 30.8 231.921 31.1C231.821 31.2 231.821 31.3 231.721 31.3C231.621 31.2 231.621 31.1 231.621 31C231.721 30.6 231.921 30.3 232.021 30C232.021 29.9 232.221 29.8 232.021 29.7C231.921 29.6 231.821 29.7 231.721 29.9C231.421 30.4 231.121 31 230.721 31.6ZM222.321 24.4C222.121 24.6 221.921 24.8 221.721 25C221.521 25.2 221.221 25.4 221.021 25.5C220.221 26 220.221 26 220.721 26.8C220.721 26.8 220.721 26.8 220.721 26.9C220.821 27 220.821 27 220.921 26.9C221.321 26 221.821 25.2 222.321 24.4ZM190.821 27.1C190.821 27 190.721 26.9 190.621 26.8C190.521 26.7 190.421 26.8 190.321 26.9C189.721 27.4 189.121 27.9 188.421 28.3C188.121 28.5 188.221 28.7 188.221 28.9C188.221 29 188.321 29.1 188.421 29C189.021 28.4 189.821 27.9 190.521 27.4C190.721 27.2 190.821 27.2 190.821 27.1ZM169.421 13.3C168.621 14.1 167.821 14.8 167.021 15.5C166.921 15.5 166.921 15.6 166.921 15.7C166.921 15.8 166.921 15.9 166.921 15.9C167.021 16 167.021 15.8 167.121 15.8C167.721 15.3 168.321 14.8 169.121 14.4C169.421 14.2 169.521 14 169.521 13.7C169.421 13.7 169.421 13.5 169.421 13.3ZM202.621 24.5C202.821 24.2 203.021 23.9 203.221 23.5C203.521 23.1 203.721 22.8 204.021 22.4C204.121 22.2 204.021 21.8 203.821 21.8C203.621 21.7 203.621 22 203.521 22.1C203.221 22.6 202.921 23.2 202.521 23.7C202.421 24 202.421 24.2 202.621 24.5ZM228.021 18.8C228.021 18.7 227.821 18.6 227.721 18.5C227.621 18.4 227.521 18.5 227.521 18.6C227.321 19 227.021 19.4 226.821 19.8C226.721 20 226.721 20.2 226.821 20.3C226.921 20.4 226.921 20.5 227.021 20.6C227.121 20.7 227.221 20.8 227.321 20.5C227.421 20 227.721 19.5 227.921 19C227.921 18.9 228.021 18.9 228.021 18.8ZM195.621 32.5C195.921 32.6 196.021 32.6 196.221 32.4C196.421 32.1 196.721 31.8 196.921 31.5C197.421 31 197.721 30.3 198.521 30.1C198.621 30.1 198.621 30 198.621 29.9C198.621 29.8 198.621 29.8 198.521 29.8C198.221 29.8 198.021 29.8 197.821 30.1C197.321 30.8 196.721 31.4 196.121 32.1C196.021 32.2 195.821 32.3 195.621 32.5ZM190.021 25.8C189.321 26.3 188.721 26.8 188.021 27.2C187.821 27.3 188.021 27.5 188.021 27.7C188.021 27.8 188.121 27.7 188.221 27.7C188.821 27.2 189.421 26.8 190.121 26.4C190.221 26.3 190.321 26.3 190.221 26.2C190.221 26 190.221 25.8 190.021 25.8ZM230.321 20.3C230.221 20.3 230.121 20.4 230.121 20.5C229.821 20.9 229.521 21.4 229.321 21.8C229.021 22.3 229.021 22.3 229.521 22.5C229.521 22.5 229.521 22.5 229.621 22.5C229.721 22.5 229.821 22.5 229.821 22.4C229.921 21.8 230.221 21.2 230.521 20.6C230.621 20.5 230.521 20.4 230.321 20.3ZM178.521 12.9C178.721 12.9 178.821 12.9 178.921 12.8C179.221 12.3 179.521 11.8 179.821 11.4C179.921 11.3 179.921 11.2 179.721 11.2C179.121 11.2 179.021 11.2 178.821 11.8C178.721 12.1 178.621 12.4 178.421 12.7C178.321 12.9 178.321 12.9 178.521 12.9ZM181.721 21.9C181.221 22.8 180.821 23.6 180.421 24.4C180.921 24.4 181.221 24.2 181.321 23.8C181.421 23.6 181.521 23.3 181.621 23.1C181.821 22.7 181.821 22.4 181.721 21.9ZM167.821 26.5C167.921 26.5 167.921 26.4 167.921 26.4C168.521 25.5 169.321 24.7 170.121 23.9C170.321 23.7 170.421 23.6 170.621 23.4C170.721 23.2 170.721 23.1 170.521 23C170.421 22.9 170.321 23.1 170.321 23.2L170.221 23.3C169.421 24.2 168.821 25.2 167.821 26C167.621 26.1 167.721 26.3 167.821 26.5ZM202.221 23.3C202.421 22.9 202.621 22.5 202.921 22.2C203.121 21.9 203.221 21.7 203.421 21.4C203.521 21.2 203.421 21 203.321 20.9C203.121 20.8 203.121 21 203.021 21.1C202.721 21.6 202.521 22 202.221 22.5C202.021 22.7 202.121 23 202.221 23.3ZM227.721 21.2C227.821 21.2 227.921 21.2 227.921 21.1C228.221 20.6 228.521 20 228.821 19.5C228.921 19.3 228.821 19.3 228.721 19.2C228.621 19.1 228.521 19.1 228.421 19.3C228.121 19.8 227.821 20.3 227.621 20.9C227.421 21.1 227.621 21.1 227.721 21.2ZM230.321 22.7C230.521 22.7 230.821 22.8 230.921 22.6C231.021 22.3 231.221 21.9 231.321 21.6C231.421 21.4 231.221 21.2 231.121 21.2C231.021 21.1 230.921 21.3 230.921 21.4C230.721 21.8 230.521 22.1 230.221 22.4C230.121 22.5 230.021 22.6 230.021 22.7C230.021 22.7 230.221 22.6 230.321 22.7ZM225.821 31.2C225.921 31.3 226.021 31.2 226.021 31.1C226.121 30.7 226.321 30.3 226.521 29.9C226.721 29.5 227.021 29 227.221 28.6C227.321 28.5 227.321 28.4 227.221 28.3C227.121 28.2 227.021 28.3 226.921 28.4C226.921 28.5 226.821 28.6 226.821 28.7C226.421 29.4 226.121 30.2 225.721 30.8C225.521 31 225.521 31.1 225.821 31.2ZM187.121 21.7C187.121 21.8 187.121 21.9 187.121 22C187.121 22.2 187.221 22.2 187.321 22.1C187.621 21.9 188.021 21.7 188.321 21.4C188.421 21.3 188.421 20.8 188.221 20.7H188.121C187.821 21 187.421 21.2 187.121 21.5C187.221 21.6 187.221 21.7 187.121 21.7ZM229.521 19.7C229.421 19.7 229.421 19.8 229.321 19.8C229.121 20.2 228.921 20.6 228.721 20.9C228.621 21.1 228.521 21.3 228.421 21.5C228.321 21.7 228.521 21.8 228.621 21.8C228.821 21.9 228.721 21.7 228.821 21.6C229.021 21 229.421 20.5 229.721 20C229.821 19.9 229.721 19.8 229.521 19.7ZM237.221 11C237.221 10.9 237.121 10.8 237.021 10.8C236.921 10.7 236.821 10.8 236.721 10.9C236.421 11.3 236.221 11.7 235.921 12.1C235.821 12.2 235.721 12.4 235.921 12.5C236.121 12.6 236.221 12.5 236.321 12.4C236.621 12 236.821 11.6 237.121 11.2C237.121 11.1 237.221 11.1 237.221 11ZM187.321 23C187.421 23 187.221 23.4 187.521 23.3C187.921 23.1 188.321 22.8 188.721 22.6C188.921 22.4 188.721 22.2 188.721 22.1C188.621 21.9 188.521 22.1 188.421 22.2C188.121 22.4 187.821 22.6 187.421 22.9C187.421 22.8 187.321 22.9 187.321 23ZM189.821 25.1C189.821 25 189.721 24.9 189.621 24.8C189.621 24.7 189.521 24.8 189.421 24.8C188.921 25.3 188.321 25.7 187.821 26.2C187.721 26.3 187.721 26.4 187.821 26.4C187.921 26.5 187.921 26.4 188.021 26.3C188.521 25.9 189.021 25.5 189.621 25.2C189.721 25.3 189.821 25.2 189.821 25.1ZM219.221 26.4C218.721 26.5 218.421 26.6 218.321 27.1C218.221 27.4 218.021 27.7 217.921 28C217.821 28.3 217.721 28.5 217.621 28.8C218.221 28.1 218.721 27.3 219.221 26.4ZM188.321 20.2C188.321 20.1 188.221 19.9 188.221 19.7C188.221 19.6 188.121 19.6 188.021 19.7C187.721 20 187.421 20.2 187.121 20.5C187.021 20.6 187.021 20.8 187.121 20.9C187.221 21 187.321 20.9 187.421 20.9C187.721 20.8 187.921 20.7 188.221 20.5C188.221 20.4 188.321 20.4 188.321 20.2ZM180.721 11.1C180.521 11.2 180.321 11.1 180.221 11.3C179.921 11.8 179.621 12.3 179.321 12.8C179.321 12.9 179.221 13 179.321 13C179.521 13 179.721 13.1 179.821 12.9C180.021 12.3 180.421 11.7 180.721 11.1ZM202.721 19.7C202.321 20.2 202.121 20.8 201.821 21.4C201.721 21.5 201.821 21.7 201.921 21.9C202.221 21.4 202.421 20.9 202.721 20.4C203.021 20.2 202.921 20 202.721 19.7ZM189.421 24.1C189.421 24.1 189.421 24 189.321 23.9C189.221 23.8 189.121 23.9 189.121 24C188.821 24.3 188.521 24.5 188.221 24.8C188.121 24.9 187.921 25 187.821 25.1C187.721 25.2 187.721 25.3 187.821 25.4C187.921 25.5 188.021 25.4 188.021 25.3C188.421 25 188.821 24.6 189.321 24.3C189.321 24.3 189.421 24.2 189.421 24.1ZM187.421 11.7C187.421 11.6 187.421 11.5 187.421 11.4C187.421 11.3 187.321 11.2 187.321 11.3C186.921 11.5 186.621 11.7 186.321 11.9C186.221 12 186.221 12.2 186.321 12.3C186.421 12.4 186.521 12.3 186.621 12.3C186.821 12.2 187.121 12.1 187.321 12.1C187.321 11.9 187.421 11.9 187.421 11.7ZM196.921 32.6C197.021 32.6 197.021 32.6 197.021 32.6C197.321 32.4 197.521 32.2 197.821 32C198.221 31.7 198.421 31.3 198.421 30.7C197.921 31.3 197.421 31.9 196.921 32.6ZM189.121 23.2C189.121 23.1 189.121 23 189.021 22.9C188.921 22.8 188.921 22.9 188.821 23C188.521 23.2 188.321 23.4 188.021 23.6C187.921 23.7 187.721 23.8 187.621 23.9C187.521 24 187.521 24.1 187.621 24.2C187.721 24.3 187.821 24.2 187.821 24.1C188.221 23.8 188.521 23.5 188.921 23.3C189.021 23.4 189.121 23.4 189.121 23.2ZM177.621 12.3C177.621 12.5 177.621 12.6 177.721 12.7C177.721 12.8 177.821 12.9 177.921 12.9C178.021 12.9 178.021 12.8 178.021 12.7C178.021 12.3 178.221 12 178.321 11.7C178.321 11.6 178.421 11.5 178.321 11.5C178.221 11.5 178.121 11.5 178.021 11.6C177.921 11.7 177.821 12 177.621 12.3ZM187.521 14.5C187.521 14.4 187.521 14.3 187.521 14.1C187.521 14 187.421 13.9 187.321 14C187.021 14.2 186.821 14.3 186.521 14.5C186.421 14.6 186.421 14.7 186.421 14.8C186.421 14.9 186.421 14.9 186.521 14.9C186.921 14.8 187.221 14.7 187.521 14.5ZM202.421 18.6C201.921 19.3 201.621 19.9 201.821 20.4C202.021 20.1 202.221 19.7 202.421 19.4C202.521 19.1 202.521 18.8 202.421 18.6ZM237.721 11.5C237.721 11.4 237.621 11.3 237.621 11.3C237.521 11.2 237.521 11.3 237.421 11.4C237.221 11.8 237.021 12.1 236.721 12.5C236.721 12.6 236.621 12.7 236.721 12.8C236.821 12.9 236.921 12.8 237.021 12.7C237.221 12.4 237.421 12.1 237.621 11.8C237.621 11.6 237.721 11.5 237.721 11.5ZM178.221 23.1C178.421 22.6 178.621 22.2 178.921 21.7C178.921 21.6 179.021 21.6 178.921 21.5C178.821 21.4 178.721 21.5 178.721 21.5C178.621 21.5 178.521 21.6 178.521 21.7C178.221 22.1 178.221 22.6 178.221 23.1ZM186.121 11.2C186.521 11.1 186.921 10.9 187.321 10.8C187.421 10.8 187.421 10.6 187.421 10.5C187.421 10.4 187.321 10.4 187.221 10.4C186.721 10.5 186.421 10.9 186.121 11.2ZM187.621 15.3C187.521 15.2 187.721 14.9 187.421 15C187.121 15.1 186.821 15.3 186.621 15.5C186.521 15.6 186.521 15.7 186.621 15.8C186.721 15.9 186.821 15.8 186.821 15.8C187.021 15.7 187.221 15.6 187.421 15.6C187.521 15.6 187.621 15.5 187.621 15.3ZM187.821 17.2C187.721 17.1 187.921 16.8 187.621 16.9C187.321 17 187.021 17.3 186.821 17.5C186.721 17.6 186.721 17.7 186.821 17.7C186.821 17.8 186.921 17.8 187.021 17.7C187.321 17.6 187.521 17.4 187.821 17.3C187.721 17.4 187.821 17.3 187.821 17.2ZM223.321 8.8C223.021 9.2 222.921 9.7 222.821 10.1C222.821 10.2 222.821 10.3 222.921 10.4C223.121 10.5 223.121 10.3 223.121 10.2C223.421 9.8 223.221 9.3 223.321 8.8ZM168.621 9.1C168.521 9.1 168.421 9.1 168.221 9.2C167.921 9.3 167.621 9.4 167.221 9.5C167.021 9.5 167.021 9.7 167.021 9.8C167.021 9.9 167.021 10 167.021 10C167.121 10.1 167.221 9.9 167.321 9.9C167.821 9.7 168.221 9.4 168.621 9.1ZM224.921 15.5C224.521 15.9 224.821 16.4 224.821 16.8C225.321 16.2 225.321 16.1 224.921 15.5ZM186.721 16.7C187.021 16.6 187.321 16.4 187.621 16.3C187.721 16.2 187.621 16.1 187.621 16C187.621 15.9 187.521 15.9 187.421 15.9C187.121 16.1 186.821 16.2 186.621 16.5C186.621 16.6 186.621 16.6 186.721 16.7ZM236.421 10.7C236.321 10.6 236.121 10.6 236.121 10.7C235.921 11.1 235.721 11.5 235.521 11.9C235.521 12 235.521 12.1 235.621 12.1C235.721 12.1 235.721 12.1 235.721 12C235.821 11.6 236.221 11.2 236.421 10.7ZM188.121 19.1C188.121 19 188.121 18.8 187.921 18.9C187.621 19.1 187.321 19.3 187.021 19.5C186.921 19.5 186.921 19.6 187.021 19.7H187.121C187.421 19.5 187.721 19.4 188.021 19.2C188.021 19.2 188.021 19.1 188.121 19.1Z" fill="black"/>
<path d="M210.721 13.7C210.821 13.2 211.121 12.4 211.921 11.9C212.221 11.7 213.921 11.2 214.321 11.3C215.221 11.4 215.821 12 216.221 12.7C217.221 14.4 216.321 16.8 214.521 17.5C213.221 18 211.821 17.5 211.121 16.1C210.821 15.5 210.621 14.8 210.721 13.7ZM212.221 13.8C212.121 14.5 212.321 15.1 212.821 15.7C213.121 16.1 213.621 16.2 214.121 16C214.721 15.7 215.221 14.9 215.221 14.2C215.121 13.2 214.321 12.6 213.621 12.4C213.421 12.4 213.321 12.4 213.121 12.5C212.421 12.7 212.221 13.2 212.221 13.8Z" fill="black"/>
<path d="M138.322 12.8C138.322 12.8 137.522 25 147.122 29.8C147.122 29.8 156.821 26.4 157.921 14.6C157.921 14.6 157.322 10.7 152.622 10.8C152.222 10.8 148.821 11.2 148.221 15.5C148.121 16.2 147.822 11.3 146.322 10C144.422 8.5 140.722 6.9 138.322 12.8Z" fill="#CE2E1D"/>
</g>
<defs>
<clipPath id="clip0_1_126">
<rect width="241.1" height="38.6" fill="white" transform="translate(0.0214844 0.699997)"/>
</clipPath>
</defs>
</svg>
